<?xml version="1.0" encoding="UTF-8"?>
<svg version="1.1" xmlns="http://www.w3.org/2000/svg" width="500" height="500">
<path d="M0 0 C1.27020996 -0.02247803 2.54041992 -0.04495605 3.84912109 -0.06811523 C15.19051539 -0.03860006 15.19051539 -0.03860006 19.875 4.4375 C21.09783406 6.88316811 20.88435559 8.1683395 20.68359375 10.8828125 C20.59501099 12.23934937 20.59501099 12.23934937 20.50463867 13.62329102 C20.44123291 14.59322998 20.37782715 15.56316895 20.3125 16.5625 C19.08373503 39.25688634 23.65725141 60.22892783 38.6484375 78.02734375 C52.21729348 92.71503522 70.48245049 103.68188113 90.93115234 104.52197266 C98.21027731 104.71472451 105.40860365 104.74648706 112.625 103.6875 C116.26849887 103.23442242 116.88142507 103.44065618 120.4375 105.1875 C123.34988898 107.87585906 123.81426796 109.36686774 124.03613281 113.27807617 C124.41190982 144.17262641 124.41190982 144.17262641 120.875 156.4375 C120.68695801 157.09363281 120.49891602 157.74976563 120.30517578 158.42578125 C117.66925927 167.33379504 113.99970491 175.62318372 109.75 183.875 C109.33032959 184.69846924 108.91065918 185.52193848 108.47827148 186.37036133 C108.07036377 187.13372803 107.66245605 187.89709473 107.2421875 188.68359375 C106.88237793 189.36091553 106.52256836 190.0382373 106.15185547 190.73608398 C104.59372572 192.81229932 103.28420313 193.51173875 100.875 194.4375 C96.38796184 195.01915309 94.3819638 194.73246075 90.4375 192.4375 C87.64513532 189.16839013 87.41810014 187.74208327 87.5612793 183.54248047 C88.07184022 180.11675576 89.71865006 177.39860365 91.5 174.5 C100.56769713 158.64263745 103.86964601 142.56032845 104.875 124.4375 C103.76125 124.47230469 102.6475 124.50710937 101.5 124.54296875 C78.64664002 125.04246817 55.79258024 119.49180959 37.875 104.4375 C37.22917969 103.89609375 36.58335937 103.3546875 35.91796875 102.796875 C23.76924374 92.25945457 15.7575232 81.91175254 8.875 67.4375 C8.39675781 66.50679688 7.91851562 65.57609375 7.42578125 64.6171875 C0.22388647 50.12688869 0.45316405 35.22281757 0.875 19.4375 C-23.38043864 21.57108025 -44.5766027 27.38721438 -64.125 42.4375 C-64.96417969 43.08203125 -65.80335938 43.7265625 -66.66796875 44.390625 C-71.15201818 48.12614472 -74.9472137 52.29296684 -78.625 56.8125 C-79.3571875 57.70710938 -80.089375 58.60171875 -80.84375 59.5234375 C-85.31123061 65.23018499 -89.07011383 70.78725228 -92.125 77.375 C-92.4660376 78.1064624 -92.8070752 78.8379248 -93.15844727 79.59155273 C-104.43410194 104.43210514 -106.12286717 133.62401753 -96.71337891 159.38720703 C-94.43024477 165.37532956 -91.92395381 171.01758032 -88.6875 176.5625 C-86.01936708 181.21921456 -85.18975492 184.10660305 -86.125 189.4375 C-87.99515094 191.86869623 -89.40638345 193.07819173 -92.125 194.4375 C-95.94825798 194.79818471 -98.28808709 194.96705697 -101.58203125 192.8828125 C-104.70740954 189.87745642 -106.52163268 186.82646813 -108.5 183 C-108.88357666 182.26426758 -109.26715332 181.52853516 -109.66235352 180.77050781 C-112.60889614 174.90308186 -114.95849917 168.90294206 -117.0625 162.6875 C-117.48571533 161.44915405 -117.48571533 161.44915405 -117.91748047 160.18579102 C-121.76841176 148.19555211 -122.50648946 136.13625624 -122.4375 123.625 C-122.43534485 122.91995331 -122.4331897 122.21490662 -122.43096924 121.48849487 C-122.38050668 111.20011255 -122.05345792 101.39202996 -119.125 91.4375 C-118.93695801 90.78426758 -118.74891602 90.13103516 -118.55517578 89.45800781 C-113.36801334 71.91986907 -104.70965364 54.83054285 -92.125 41.4375 C-91.465 41.4375 -90.805 41.4375 -90.125 41.4375 C-89.86847656 40.86 -89.61195313 40.2825 -89.34765625 39.6875 C-78.86553334 20.3977147 -50.71762228 9.67189402 -31.125 3.4375 C-20.82765877 0.39753648 -10.67264668 0.12559923 0 0 Z " fill="#F94934" transform="translate(249.125,117.5625)"/>
<path d="M0 0 C1.26802963 -0.00856522 1.26802963 -0.00856522 2.56167603 -0.01730347 C3.49105484 -0.01842133 4.42043365 -0.01953918 5.37797546 -0.02069092 C6.35534668 -0.02565582 7.3327179 -0.03062073 8.33970642 -0.03573608 C11.58383378 -0.05038097 14.82791223 -0.05716378 18.07206726 -0.06268311 C20.32167564 -0.06843289 22.571284 -0.07419064 24.82089233 -0.07995605 C29.54288461 -0.09047284 34.26485983 -0.09631099 38.98686218 -0.09979248 C45.03982637 -0.10527689 51.09256556 -0.1293011 57.14545918 -0.15776443 C61.79427754 -0.17638175 66.44304165 -0.18159595 71.09189415 -0.18312836 C73.32343462 -0.18615774 75.55497407 -0.19419584 77.78647804 -0.20731354 C80.90829737 -0.22435389 84.02956609 -0.22249847 87.15141296 -0.21600342 C88.53637215 -0.22982559 88.53637215 -0.22982559 89.9493103 -0.243927 C96.5201417 -0.20106752 100.32037763 1.23057941 105.00492859 5.95953369 C105.54511124 6.4998674 106.08529388 7.04020111 106.6418457 7.59690857 C107.48902412 8.45957085 107.48902412 8.45957085 108.35331726 9.33966064 C109.24164497 10.2322332 109.24164497 10.2322332 110.1479187 11.14283752 C112.027146 13.03320591 113.89927557 14.93042919 115.77128601 16.82794189 C117.04881755 18.11551107 118.32680755 19.40262554 119.60527039 20.68927002 C122.72844144 23.83442085 125.8452682 26.9857358 128.95878601 30.14044189 C133.22803099 28.49723167 136.03193235 25.28462288 139.15019226 22.07403564 C139.73671066 21.479944 140.32322906 20.88585236 140.92752075 20.27375793 C142.79699823 18.37989184 144.65988281 16.47974243 146.52128601 14.57794189 C148.9751979 12.07092461 151.43557713 9.57052637 153.90019226 7.07403564 C154.46275223 6.494879 155.02531219 5.91572235 155.60491943 5.3190155 C160.55425323 0.30768686 160.55425323 0.30768686 164.88852406 0.00622082 C165.98989972 -0.0001894 165.98989972 -0.0001894 167.11352539 -0.00672913 C167.95880798 -0.01388443 168.80409058 -0.02103973 169.67498779 -0.02841187 C170.59920029 -0.03110077 171.52341278 -0.03378967 172.47563171 -0.03656006 C173.93949814 -0.04641685 173.93949814 -0.04641685 175.43293762 -0.05647278 C178.66681493 -0.07620518 181.90064582 -0.08786765 185.13456726 -0.09783936 C186.23861593 -0.10191488 187.3426646 -0.10599041 188.4801693 -0.11018944 C194.32256763 -0.13104889 200.16494247 -0.14535176 206.00737 -0.15472412 C212.0434594 -0.16579448 218.07918076 -0.2002023 224.11513996 -0.23989582 C228.7554188 -0.26603052 233.39560947 -0.27441313 238.03595543 -0.2780056 C240.26110002 -0.28287886 242.48624048 -0.29451379 244.71131325 -0.31304359 C247.8257587 -0.33736978 250.9392455 -0.33648177 254.05375671 -0.32952881 C254.97189651 -0.34233887 255.89003632 -0.35514893 256.83599854 -0.36834717 C262.50079646 -0.32227316 265.6177466 0.41732416 269.95878601 4.14044189 C271.53776654 7.29840296 271.77806772 10.74714825 270.95878601 14.14044189 C268.95294079 16.82142848 267.33200608 18.8280158 263.9613781 19.59487915 C261.4782051 19.76099992 259.03874024 19.76697768 256.55033875 19.72052002 C255.13973679 19.72419838 255.13973679 19.72419838 253.70063782 19.72795105 C251.66320465 19.73012057 249.62573425 19.7208582 247.58839226 19.70146179 C244.36461394 19.67143326 241.14216387 19.67242073 237.91827393 19.68157959 C231.07744329 19.69550486 224.23704513 19.67073723 217.39628601 19.64044189 C209.46575049 19.60533998 201.53585641 19.58602287 193.60525703 19.60856628 C190.42736775 19.60918508 187.25063058 19.5799713 184.07290649 19.54974365 C182.1278818 19.55181772 180.18285791 19.55528237 178.23783875 19.56036377 C177.35305344 19.5438829 176.46826813 19.52740204 175.55667114 19.51042175 C170.47785889 19.50835047 170.47785889 19.50835047 166.53118896 22.55169678 C166.01229599 23.40598267 165.49340302 24.26026855 164.95878601 25.14044189 C163.30875773 26.49431125 161.64134731 27.82722332 159.95878601 29.14044189 C158.27500559 30.79221128 156.61419734 32.46048575 154.95878601 34.14044189 C151.73293532 37.39374507 148.50235818 40.64232563 145.27128601 43.89044189 C144.40439148 44.76571533 143.53749695 45.64098877 142.64433289 46.54278564 C141.4019989 47.78995361 141.4019989 47.78995361 140.13456726 49.06231689 C139.00401917 50.20072021 139.00401917 50.20072021 137.85063171 51.36212158 C134.83688496 54.19502019 132.29927191 54.68715112 128.14430237 54.58840942 C122.05522881 53.34032577 117.82713315 47.08502229 114.33506203 42.37285805 C106.04217635 31.25746641 97.05545395 20.49559571 82.71092606 18.24400711 C69.9991203 16.88175137 57.17159261 17.48790486 44.43077087 18.11437988 C37.7127251 18.41759055 30.9893968 18.54730851 24.26621819 18.68395805 C19.04727283 18.79035995 13.83660691 18.92762824 8.62190247 19.1668396 C6.74868267 19.23502647 4.87546287 19.30321293 3.00224304 19.37139893 C2.155616 19.42244278 1.30898895 19.47348663 0.43670654 19.52607727 C-3.95076993 19.65888253 -5.48924944 19.57590901 -9.06492615 16.75491333 C-11.51946679 13.50775152 -11.77839809 11.99498525 -11.54121399 8.07403564 C-10.69284652 4.79323958 -8.62938459 3.17400451 -6.04121399 1.14044189 C-3.77015578 0.00491279 -2.52185009 0.01018594 0 0 Z " fill="#F94630" transform="translate(120.04121398925781,327.85955810546875)"/>
<path d="M0 0 C0.7598929 -0.0024299 1.5197858 -0.00485979 2.30270576 -0.00736332 C3.17474648 -0.01726795 4.04678719 -0.02717258 4.94525337 -0.03737736 C5.90425545 -0.03287571 6.86325752 -0.02837406 7.85132027 -0.023736 C9.3636776 -0.03403088 9.3636776 -0.03403088 10.9065876 -0.04453373 C14.25305289 -0.06289577 17.59905349 -0.05895036 20.94555855 -0.05327702 C23.26482484 -0.05783475 25.58408978 -0.06313908 27.90335274 -0.06916142 C32.77082991 -0.07811135 37.63814319 -0.07564848 42.50561714 -0.06572819 C48.74936534 -0.05424436 54.99254751 -0.07443198 61.23622131 -0.10364532 C66.02828771 -0.12197653 70.82021776 -0.12172084 75.61231041 -0.1160078 C77.91445013 -0.11585417 80.21659885 -0.12193315 82.51870537 -0.13429928 C85.73671046 -0.14914655 88.95366108 -0.1385771 92.17163277 -0.12139225 C93.12658638 -0.13106022 94.08153999 -0.14072819 95.06543159 -0.15068913 C101.5126027 -0.07845057 101.5126027 -0.07845057 104.73953438 2.27788448 C107.04546831 5.73748843 106.41210495 8.31180818 106.14087105 12.38031673 C100.46393518 14.3029717 95.4117673 14.68454063 89.44189644 14.69916439 C88.49477791 14.70921001 87.54765938 14.71925564 86.57184029 14.72960567 C83.46074178 14.76034249 80.34972895 14.77744642 77.2385273 14.79437923 C75.07376053 14.81309851 72.909001 14.83267249 70.74424934 14.85306454 C65.06111106 14.90431133 59.37794914 14.94397699 53.69470406 14.98120785 C47.88959123 15.0212942 42.08457609 15.07236542 36.27954292 15.12250423 C24.90005434 15.21917531 13.52051049 15.30360833 2.14087105 15.38031673 C2.14087105 16.70031673 2.14087105 18.02031673 2.14087105 19.38031673 C1.48087105 19.38031673 0.82087105 19.38031673 0.14087105 19.38031673 C-0.08600395 20.26719173 -0.31287895 21.15406673 -0.54662895 22.06781673 C-2.036827 25.82879277 -3.87484163 27.70211016 -6.85912895 30.38031673 C-7.18912895 30.71031673 -7.51912895 31.04031673 -7.85912895 31.38031673 C-9.5014326 31.50486534 -11.14965171 31.55600198 -12.79662895 31.56781673 C-13.69252739 31.58199642 -14.58842583 31.59617611 -15.5114727 31.61078548 C-17.85912895 31.38031673 -17.85912895 31.38031673 -19.85912895 29.38031673 C-22.09641709 24.23455402 -22.09641709 24.23455402 -21.23412895 21.13031673 C-19.85912895 19.38031673 -19.85912895 19.38031673 -17.79662895 18.44281673 C-17.15725395 18.09219173 -16.51787895 17.74156673 -15.85912895 17.38031673 C-15.71475395 16.57594173 -15.57037895 15.77156673 -15.42162895 14.94281673 C-14.85912895 12.38031673 -14.85912895 12.38031673 -12.42162895 10.56781673 C-9.85912895 9.38031673 -9.85912895 9.38031673 -7.85912895 9.38031673 C-7.85912895 8.06031673 -7.85912895 6.74031673 -7.85912895 5.38031673 C-7.24037895 5.11219173 -6.62162895 4.84406673 -5.98412895 4.56781673 C-3.34482765 3.09291307 -2.9362038 0.60065088 0 0 Z " fill="#FA452F" transform="translate(282.85912895202637,330.61968326568604)"/>
<path d="M0 0 C0.84528259 -0.0071553 1.69056519 -0.01431061 2.5614624 -0.02168274 C3.4856749 -0.02437164 4.40988739 -0.02706055 5.36210632 -0.02983093 C6.82597275 -0.03968773 6.82597275 -0.03968773 8.31941223 -0.04974365 C11.55328954 -0.06947605 14.78712043 -0.08113852 18.02104187 -0.09111023 C19.12509054 -0.09518576 20.22913921 -0.09926128 21.36664391 -0.10346031 C27.20904224 -0.12431977 33.05141708 -0.13862263 38.8938446 -0.147995 C44.92993401 -0.15906536 50.96565537 -0.19347317 57.00161457 -0.23316669 C61.6418934 -0.25930139 66.28208408 -0.267684 70.92243004 -0.27127647 C73.14757463 -0.27614974 75.37271509 -0.28778467 77.59778786 -0.30631447 C80.71223331 -0.33064065 83.82572011 -0.32975264 86.94023132 -0.32279968 C87.85837112 -0.33560974 88.77651093 -0.3484198 89.72247314 -0.36161804 C95.38727107 -0.31554403 98.50422121 0.42405329 102.84526062 4.14717102 C104.42424115 7.30513209 104.66454233 10.75387738 103.84526062 14.14717102 C101.8394154 16.82815761 100.21848069 18.83474492 96.84785271 19.60160828 C94.36467971 19.76772904 91.92521485 19.7737068 89.43681335 19.72724915 C88.0262114 19.73092751 88.0262114 19.73092751 86.58711243 19.73468018 C84.54967926 19.7368497 82.51220886 19.72758732 80.47486687 19.70819092 C77.25108855 19.67816239 74.02863848 19.67914986 70.80474854 19.68830872 C63.96391789 19.70223399 57.12351974 19.67746636 50.28276062 19.64717102 C42.3522251 19.61206911 34.42233102 19.59275199 26.49173164 19.61529541 C23.31384236 19.61591421 20.13710519 19.58670042 16.9593811 19.55647278 C15.0143564 19.55854684 13.06933252 19.56201149 11.12431335 19.5670929 C10.23952805 19.55061203 9.35474274 19.53413116 8.44314575 19.51715088 C6.13462949 19.5400014 4.08905822 19.60300849 1.84526062 20.14717102 C-0.58619617 22.49576008 -0.58619617 22.49576008 -2.15473938 25.14717102 C-3.14473938 25.47717102 -4.13473938 25.80717102 -5.15473938 26.14717102 C-5.15473938 24.16717102 -5.15473938 22.18717102 -5.15473938 20.14717102 C-4.65973938 21.13717102 -4.65973938 21.13717102 -4.15473938 22.14717102 C-3.49473938 22.14717102 -2.83473938 22.14717102 -2.15473938 22.14717102 C-2.64973938 20.16717102 -2.64973938 20.16717102 -3.15473938 18.14717102 C-0.42266269 17.38110613 2.02005523 17.0171103 4.85450745 16.99568176 C5.64226562 16.9873381 6.4300238 16.97899445 7.24165344 16.97039795 C8.52439651 16.96412132 8.52439651 16.96412132 9.83305359 16.9577179 C10.74083557 16.94942459 11.64861755 16.94113129 12.58390808 16.93258667 C14.55365645 16.91520208 16.52342531 16.90003093 18.49320602 16.8868103 C21.61208688 16.86575468 24.73086544 16.83873286 27.84968567 16.81013489 C34.47317117 16.75047225 41.09670459 16.69831493 47.72026062 16.64717102 C55.38910201 16.58788731 63.05789304 16.52552577 70.72664261 16.45529175 C73.79651007 16.42877464 76.86638277 16.407924 79.93629456 16.38728333 C81.82375836 16.37067368 83.71121987 16.35380125 85.59867859 16.33662415 C86.44979218 16.33243973 87.30090576 16.32825531 88.17781067 16.32394409 C92.50715195 16.27841517 96.58186219 16.00643648 100.84526062 15.14717102 C100.90713562 13.88904602 100.96901062 12.63092102 101.03276062 11.33467102 C101.06756531 10.62697571 101.10237 9.9192804 101.13822937 9.19013977 C100.75536806 6.52032027 99.93263665 5.81409946 97.84526062 4.14717102 C95.82319837 3.69297247 95.82319837 3.69297247 93.56317139 3.75276184 C92.68975601 3.74141205 91.81634064 3.73006226 90.91645813 3.71836853 C89.96105133 3.72129913 89.00564453 3.72422974 88.02128601 3.72724915 C87.01290176 3.7187796 86.00451752 3.71031006 84.96557617 3.70158386 C81.62456226 3.67814049 78.28400689 3.67719347 74.94291687 3.67842102 C72.62507949 3.67132391 70.30724387 3.66362558 67.9894104 3.65534973 C63.12791563 3.64188804 58.26658329 3.64034379 53.40507507 3.64619446 C47.16910655 3.65209212 40.93391614 3.62150318 34.69809818 3.58107758 C29.91031684 3.55525296 25.12272414 3.55231843 20.33488274 3.55596924 C18.03552227 3.55427309 15.73615355 3.54458338 13.43686104 3.52682495 C10.22358457 3.50473944 7.01189985 3.5142851 3.79862976 3.53193665 C2.84524719 3.5186734 1.89186462 3.50541016 0.90959167 3.491745 C-4.516556 3.49322102 -4.516556 3.49322102 -8.77682495 6.68562317 C-9.23153671 7.49793396 -9.68624847 8.31024475 -10.15473938 9.14717102 C-10.81473938 8.81717102 -11.47473938 8.48717102 -12.15473938 8.14717102 C-12.15473938 9.46717102 -12.15473938 10.78717102 -12.15473938 12.14717102 C-13.28911438 12.70404602 -14.42348938 13.26092102 -15.59223938 13.83467102 C-17.54030803 14.87200946 -17.54030803 14.87200946 -19.15473938 16.14717102 C-19.88439304 18.70999844 -19.88439304 18.70999844 -20.15473938 21.14717102 C-22.21723938 22.45967102 -22.21723938 22.45967102 -24.15473938 23.14717102 C-24.15473938 24.13717102 -24.15473938 25.12717102 -24.15473938 26.14717102 C-27.15473938 28.14717102 -27.15473938 28.14717102 -30.15473938 29.08467102 C-33.02475155 30.10113367 -34.26602619 30.83874378 -36.15473938 33.14717102 C-36.81473938 32.48717102 -37.47473938 31.82717102 -38.15473938 31.14717102 C-37.71428284 30.77962708 -37.27382629 30.41208313 -36.82002258 30.03340149 C-32.5101091 26.35635127 -28.42999903 22.4951774 -24.44770813 18.46748352 C-23.95142914 17.9656958 -23.45515015 17.46390808 -22.9438324 16.94691467 C-20.88133469 14.85674159 -18.82270311 12.7628447 -16.76826477 10.66474915 C-15.24909334 9.11547399 -13.72383607 7.57240206 -12.19770813 6.02998352 C-11.30076233 5.11619934 -10.40381653 4.20241516 -9.47969055 3.26094055 C-6.38290187 0.44544161 -4.03509145 0.02348502 0 0 Z " fill="#DD513D" transform="translate(287.1547393798828,327.8528289794922)"/>
<path d="M0 0 C0.85257889 -0.00137466 1.70515778 -0.00274933 2.58357239 -0.00416565 C3.52080643 -0.00057037 4.45804047 0.0030249 5.42367554 0.00672913 C6.40907822 0.0065831 7.3944809 0.00643707 8.40974426 0.00628662 C11.67791927 0.00698518 14.94603779 0.01477497 18.21420288 0.02259827 C20.47578907 0.02446265 22.73737566 0.02588646 24.9989624 0.02688599 C30.96006377 0.03070959 36.9211409 0.04053855 42.88223267 0.05158997 C48.96163607 0.06180745 55.04104337 0.06638433 61.12045288 0.07142639 C73.05535939 0.08216094 84.99024787 0.0992355 96.92514038 0.12025452 C96.92514038 0.45025452 96.92514038 0.78025452 96.92514038 1.12025452 C64.25514038 1.12025452 31.58514038 1.12025452 -2.07485962 1.12025452 C-2.07485962 1.78025452 -2.07485962 2.44025452 -2.07485962 3.12025452 C-3.72485962 3.45025452 -5.37485962 3.78025452 -7.07485962 4.12025452 C-7.35329712 6.00744202 -7.35329712 6.00744202 -7.63735962 7.93275452 C-7.74177368 8.64044983 -7.84618774 9.34814514 -7.95376587 10.07728577 C-8.21390761 12.32278871 -8.21390761 12.32278871 -7.07485962 15.12025452 C-2.05291911 17.49558264 2.8058679 17.39283829 8.23519897 17.3473053 C9.61176666 17.34774338 9.61176666 17.34774338 11.0161438 17.34819031 C14.03538623 17.34680216 17.0543788 17.33126518 20.07357788 17.31556702 C22.17250433 17.31183506 24.27143252 17.30898895 26.37036133 17.30699158 C31.88427574 17.29936955 37.39808414 17.27973329 42.91195679 17.25758362 C48.54263882 17.23709439 54.17333804 17.22798328 59.80404663 17.21791077 C70.84445769 17.1964861 81.88479021 17.16236738 92.92514038 17.12025452 C93.21389038 17.92462952 93.50264038 18.72900452 93.80014038 19.55775452 C94.65776606 22.25290131 94.65776606 22.25290131 96.92514038 23.12025452 C95.93514038 23.12025452 94.94514038 23.12025452 93.92514038 23.12025452 C93.45096365 22.63278433 92.97678692 22.14531414 92.4882412 21.64307213 C90.51660362 19.72224629 89.62673256 19.74793393 86.91552734 19.75517273 C86.10245621 19.74986038 85.28938507 19.74454803 84.45167542 19.73907471 C83.56329483 19.74836502 82.67491425 19.75765533 81.75961304 19.76722717 C80.82111008 19.76506699 79.88260712 19.7629068 78.91566467 19.76068115 C76.87603339 19.75759113 74.83638357 19.761209 72.796772 19.77069473 C69.56887846 19.78440333 66.34160178 19.77801306 63.1137085 19.76585388 C53.93590295 19.73484858 44.75823925 19.73977438 35.58041382 19.75990295 C29.96822209 19.77081361 24.35649313 19.75764336 18.74436569 19.73000717 C16.60494653 19.72456155 14.46548123 19.72864334 12.3260994 19.74240494 C9.33337136 19.7614295 6.34215832 19.75006773 3.34945679 19.73207092 C2.46512466 19.7454097 1.58079254 19.75874847 0.66966248 19.77249146 C-3.77462164 19.71303971 -5.52187084 19.55744132 -9.12237549 16.71092224 C-11.55825011 13.47886434 -11.81081558 11.95449522 -11.57485962 8.05384827 C-10.72649215 4.7730522 -8.66303022 3.15381713 -6.07485962 1.12025452 C-3.79001409 -0.02216825 -2.53803074 -0.00314892 0 0 Z " fill="#F6BDAD" transform="translate(120.07485961914063,327.87974548339844)"/>
<path d="M0 0 C1.28093033 -0.002062 1.28093033 -0.002062 2.58773804 -0.00416565 C3.5213768 -0.00057037 4.45501556 0.0030249 5.41694641 0.00672913 C6.89526947 0.00651009 6.89526947 0.00651009 8.40345764 0.00628662 C11.66619557 0.00698417 14.92887664 0.01476924 18.19160461 0.02259827 C20.45176156 0.02446301 22.71191892 0.02588665 24.97207642 0.02688599 C30.92494317 0.03070676 36.87778558 0.04053332 42.8306427 0.05158997 C48.90343395 0.06181352 54.97622912 0.06638563 61.04902649 0.07142639 C72.96765698 0.08215596 84.8862694 0.09922713 96.80488586 0.12025452 C96.80488586 0.45025452 96.80488586 0.78025452 96.80488586 1.12025452 C94.94232903 1.12239204 94.94232903 1.12239204 93.04214478 1.12457275 C81.34418697 1.14123722 69.64657727 1.18399423 57.9488039 1.25234509 C51.93471597 1.28664592 45.9208829 1.31172994 39.9066925 1.31581116 C34.10336771 1.32008737 28.30061816 1.34849466 22.49747276 1.39368629 C20.28272539 1.40668284 18.06790926 1.41096139 15.85312843 1.40640831 C12.75218603 1.40151785 9.65293494 1.42752712 6.55220032 1.46083069 C5.63510284 1.45220505 4.71800537 1.44357941 3.77311707 1.43469238 C-0.72279686 1.51571571 -2.57893377 1.62135362 -6.17932129 4.53646851 C-7.17713875 5.81544258 -7.17713875 5.81544258 -8.19511414 7.12025452 C-8.85511414 7.78025452 -9.51511414 8.44025452 -10.19511414 9.12025452 C-10.85511414 8.79025452 -11.51511414 8.46025452 -12.19511414 8.12025452 C-12.19511414 9.44025452 -12.19511414 10.76025452 -12.19511414 12.12025452 C-13.32948914 12.67712952 -14.46386414 13.23400452 -15.63261414 13.80775452 C-17.58068279 14.84509296 -17.58068279 14.84509296 -19.19511414 16.12025452 C-19.9247678 18.68308193 -19.9247678 18.68308193 -20.19511414 21.12025452 C-22.25761414 22.43275452 -22.25761414 22.43275452 -24.19511414 23.12025452 C-24.19511414 24.11025452 -24.19511414 25.10025452 -24.19511414 26.12025452 C-27.19511414 28.12025452 -27.19511414 28.12025452 -30.19511414 29.05775452 C-33.06512631 30.07421716 -34.30640094 30.81182728 -36.19511414 33.12025452 C-36.85511414 32.46025452 -37.51511414 31.80025452 -38.19511414 31.12025452 C-37.75465759 30.75271057 -37.31420105 30.38516663 -36.86039734 30.00648499 C-32.55048386 26.32943476 -28.47037379 22.4682609 -24.48808289 18.44056702 C-23.99180389 17.9387793 -23.4955249 17.43699158 -22.98420715 16.91999817 C-20.92170944 14.82982509 -18.86307786 12.73592819 -16.80863953 10.63783264 C-15.28946809 9.08855748 -13.76421082 7.54548555 -12.23808289 6.00306702 C-11.34113708 5.08928284 -10.44419128 4.17549866 -9.52006531 3.23402405 C-6.40389811 0.4009068 -4.05881769 -0.00504201 0 0 Z " fill="#FBCFBC" transform="translate(287.1951141357422,327.87974548339844)"/>
<path d="M0 0 C13.19533863 -0.16220288 26.39044006 -0.28657648 39.58657265 -0.3626852 C45.71416058 -0.39921427 51.84106639 -0.44876072 57.96826172 -0.52807617 C63.88163325 -0.60414451 69.7943488 -0.64599274 75.70817184 -0.6641407 C77.96409814 -0.67707309 80.21998858 -0.70232769 82.47563553 -0.7401104 C85.63640096 -0.79094757 88.79445781 -0.7979228 91.95556641 -0.79467773 C92.88777008 -0.81984467 93.81997375 -0.8450116 94.78042603 -0.87094116 C101.02889984 -0.80154999 101.02889984 -0.80154999 103.95273972 1.61179924 C105.45013909 3.34415611 106.76916399 5.07131733 108 7 C106.02 6.67 104.04 6.34 102 6 C101.505 4.515 101.505 4.515 101 3 C67.67 2.67 34.34 2.34 0 2 C0 1.34 0 0.68 0 0 Z " fill="#DA523F" transform="translate(118,329)"/>
<path d="M0 0 C0.33 0 0.66 0 1 0 C1.125 5.75 1.125 5.75 0 8 C0.66 8.33 1.32 8.66 2 9 C0.71937515 10.7074998 -0.61767557 12.37373596 -2 14 C-2.66 14 -3.32 14 -4 14 C-4.33 17.3 -4.66 20.6 -5 24 C-5.66 24 -6.32 24 -7 24 C-7.185625 25.175625 -7.185625 25.175625 -7.375 26.375 C-7.88640361 29.34114094 -8.42623435 32.29553509 -9 35.25 C-9.165 36.10078125 -9.33 36.9515625 -9.5 37.828125 C-10 40 -10 40 -11 42 C-11.08691001 44.84429357 -11.11553802 47.66379176 -11.09765625 50.5078125 C-11.0962413 51.34843231 -11.09482635 52.18905212 -11.09336853 53.05514526 C-11.08776237 55.74513275 -11.07520886 58.43503759 -11.0625 61.125 C-11.05748579 62.94661338 -11.05292275 64.76822807 -11.04882812 66.58984375 C-11.03779094 71.05992777 -11.0205222 75.52994986 -11 80 C-11.33 80 -11.66 80 -12 80 C-16.36566903 52.63145464 -12.72340514 24.62239957 0 0 Z " fill="#F29689" transform="translate(140,184)"/>
<path d="M0 0 C1.9375 0.8125 1.9375 0.8125 4 2 C11.09419827 23.28259481 3.45099943 53.17272979 -6.19140625 72.5 C-6.78824219 73.655 -7.38507813 74.81 -8 76 C-8.33 76 -8.66 76 -9 76 C-9 73.69 -9 71.38 -9 69 C-8.34 69 -7.68 69 -7 69 C-7 67.68 -7 66.36 -7 65 C-6.01 65 -5.02 65 -4 65 C-4.33 63.35 -4.66 61.7 -5 60 C-4.01 59.505 -4.01 59.505 -3 59 C-2.31068656 56.65092125 -2.31068656 56.65092125 -1.875 53.9375 C-1.70742188 53.01839844 -1.53984375 52.09929687 -1.3671875 51.15234375 C-1.24601562 50.44207031 -1.12484375 49.73179687 -1 49 C-0.34 49 0.32 49 1 49 C2.14957254 33.68867214 2.53399164 18.34381226 3 3 C2.34 3 1.68 3 1 3 C0.67 2.01 0.34 1.02 0 0 Z " fill="#E97E6D" transform="translate(368,223)"/>
<path d="M0 0 C10.56 0 21.12 0 32 0 C32 18.13846154 32 18.13846154 30.6875 24.6875 C30.44386719 25.97011719 30.20023437 27.25273437 29.94921875 28.57421875 C29.04081621 31.8526921 27.90778176 34.20512645 26 37 C24.84700916 33.54102748 25.19244802 32.83153347 26.36328125 29.5078125 C28.12876221 23.97925461 28.7460629 18.64203146 29.1875 12.875 C29.26935547 11.91851562 29.35121094 10.96203125 29.43554688 9.9765625 C29.63316405 7.65165452 29.82116848 5.32641508 30 3 C28.25976562 3.03480469 28.25976562 3.03480469 26.484375 3.0703125 C17.43815963 3.19441921 8.88714402 2.95168653 0 1 C0 0.67 0 0.34 0 0 Z " fill="#EE9184" transform="translate(324,239)"/>
<path d="M0 0 C1.81018555 0.0149703 3.62032856 0.0356551 5.43040466 0.06056213 C6.90828964 0.07497345 6.90828964 0.07497345 8.41603088 0.0896759 C11.68969077 0.12279489 14.9632225 0.16307778 18.23680115 0.2033844 C20.49981223 0.22767292 22.76282811 0.2515171 25.02584839 0.27493286 C30.99522867 0.33789998 36.96452429 0.40693063 42.93382263 0.47718811 C49.01980214 0.54775781 55.10584189 0.61264267 61.19187927 0.67799377 C73.14311735 0.80716878 85.09427374 0.9427441 97.0453949 1.08229065 C97.0453949 1.41229065 97.0453949 1.74229065 97.0453949 2.08229065 C95.83905396 2.08371567 94.63271301 2.08514069 93.38981628 2.08660889 C82.03001292 2.10326684 70.67056833 2.14600374 59.31095505 2.21438122 C53.47059223 2.24869533 47.63049222 2.27376811 41.7900238 2.27784729 C36.15527595 2.28212069 30.52112141 2.31050426 24.88655853 2.35572243 C22.7351807 2.36872805 20.58373197 2.37299433 18.43231964 2.36844444 C15.42215638 2.36356034 12.41374186 2.38953413 9.40379333 2.42286682 C8.5111528 2.41424118 7.61851227 2.40561554 6.69882202 2.39672852 C1.5714108 2.42458916 1.5714108 2.42458916 -2.352005 5.56100464 C-2.88086304 6.39302902 -3.40972107 7.22505341 -3.9546051 8.08229065 C-4.9446051 8.41229065 -5.9346051 8.74229065 -6.9546051 9.08229065 C-6.9546051 7.10229065 -6.9546051 5.12229065 -6.9546051 3.08229065 C-6.6246051 3.74229065 -6.2946051 4.40229065 -5.9546051 5.08229065 C-5.2946051 5.08229065 -4.6346051 5.08229065 -3.9546051 5.08229065 C-4.2330426 4.12322815 -4.2330426 4.12322815 -4.5171051 3.14479065 C-4.6614801 2.46416565 -4.8058551 1.78354065 -4.9546051 1.08229065 C-3.9546051 0.08229065 -3.9546051 0.08229065 0 0 Z " fill="#ED988C" transform="translate(288.95460510253906,344.91770935058594)"/>
<path d="M0 0 C0.69613269 9.68370295 1.14973506 19.28385823 1 29 C0.67 29 0.34 29 0 29 C-1.25406138 23.21354356 -1.11186913 17.51131884 -1.0625 11.625 C-1.05798828 10.60277344 -1.05347656 9.58054688 -1.04882812 8.52734375 C-1.037103 6.01816806 -1.02069176 3.5091151 -1 1 C-15.21218823 2.25014619 -28.29261738 5.05846764 -42 9 C-41.67 7.35 -41.34 5.7 -41 4 C-40.41992188 3.95101562 -39.83984375 3.90203125 -39.2421875 3.8515625 C-35.7127478 3.51376134 -32.54212994 3.19275731 -29.1875 2 C-19.94180962 -0.90060875 -9.58141066 -0.12756316 0 0 Z " fill="#F7ADA2" transform="translate(251,136)"/>
<path d="M0 0 C1.8871875 0.433125 1.8871875 0.433125 3.8125 0.875 C4.64523437 1.05546875 5.47796875 1.2359375 6.3359375 1.421875 C8.03248165 1.79004001 9.72576874 2.17380869 11.4140625 2.578125 C22.65954193 5.01522581 34.9050133 4.79609167 46.25 3.0234375 C47.11625 3.01183594 47.11625 3.01183594 48 3 C48.66 3.66 49.32 4.32 50 5 C42.69756961 6.42238644 35.6165702 7.21058413 28.1875 7.25 C27.14928101 7.26353516 27.14928101 7.26353516 26.09008789 7.27734375 C21.09775359 7.24876509 16.82277395 6.26941407 12 5 C9.56424828 4.76432603 9.56424828 4.76432603 7.5 4.875 C6.345 4.91625 5.19 4.9575 4 5 C4 4.34 4 3.68 4 3 C2.35 2.67 0.7 2.34 -1 2 C-0.67 1.34 -0.34 0.68 0 0 Z " fill="#EC877A" transform="translate(318,218)"/>
<path d="M0 0 C0.33 0 0.66 0 1 0 C1.125 2.875 1.125 2.875 1 6 C0.34 6.66 -0.32 7.32 -1 8 C-1.39764263 9.98821313 -1.73775349 11.98944339 -2 14 C2.92737019 15.97094808 6.78020872 16.1799928 12 16 C12 14.35 12 12.7 12 11 C12.99 11.33 13.98 11.66 15 12 C13.55214724 17.55010225 13.55214724 17.55010225 11.3125 19.375 C7.96529863 20.27964902 5.46076435 20.41767846 2 20 C-1.4375 18 -1.4375 18 -4 15 C-5.02888966 8.62088409 -3.52168697 5.28253045 0 0 Z " fill="#EE7C6F" transform="translate(341,292)"/>
<path d="M0 0 C0.33 0 0.66 0 1 0 C1.01981934 0.70382813 1.03963867 1.40765625 1.06005859 2.1328125 C1.45554804 15.52264311 1.93843744 28.74995713 4 42 C0.85745824 39.47566318 0.44304948 37.28937732 -0.125 33.375 C-0.38733112 29.87811449 -0.38733112 29.87811449 -2 27 C-2.02892402 25.3372444 -1.98666629 23.67314027 -1.9140625 22.01171875 C-1.87023437 20.99529297 -1.82640625 19.97886719 -1.78125 18.93164062 C-1.7296875 17.86107422 -1.678125 16.79050781 -1.625 15.6875 C-1.58117187 14.62853516 -1.53734375 13.56957031 -1.4921875 12.47851562 C-1.09847029 3.82220537 -1.09847029 3.82220537 0 0 Z " fill="#EF9184" transform="translate(145,228)"/>
<path d="M0 0 C3.875 1.75 3.875 1.75 5 4 C4.99254985 5.48312508 4.91798796 6.96620858 4.80859375 8.4453125 C4.74978027 9.35007324 4.6909668 10.25483398 4.63037109 11.18701172 C4.56672363 12.15654785 4.50307617 13.12608398 4.4375 14.125 C3.89391325 23.73880954 4.45715145 32.51042469 6 42 C6.3528598 44.66461902 6.67743051 47.3314706 7 50 C6.731875 49.443125 6.46375 48.88625 6.1875 48.3125 C5.05906408 45.95982871 5.05906408 45.95982871 3.43969727 43.89892578 C1.47168688 39.93620655 1.65822278 36.66256887 1.77734375 32.3046875 C1.78633194 31.47542755 1.79532013 30.6461676 1.80458069 29.79177856 C1.83451515 27.15241926 1.88431599 24.51398573 1.9375 21.875 C1.98532616 19.22893973 2.02864222 16.5831104 2.05970764 13.9367981 C2.07946863 12.29282435 2.10910192 10.64893317 2.14964294 9.00534058 C2.20101664 5.11645987 2.21106566 3.31659848 0 0 Z " fill="#F4A79F" transform="translate(265,120)"/>
<path d="M0 0 C0.33 0 0.66 0 1 0 C1.33958571 5.99934761 0.15246393 10.9139833 -1.625 16.625 C-1.89135254 17.49930664 -2.15770508 18.37361328 -2.43212891 19.27441406 C-4.69977146 26.49845636 -7.53190672 33.26058468 -11 40 C-11.33 40 -11.66 40 -12 40 C-12 37.69 -12 35.38 -12 33 C-11.34 33 -10.68 33 -10 33 C-10 31.68 -10 30.36 -10 29 C-9.01 29 -8.02 29 -7 29 C-7.33 27.35 -7.66 25.7 -8 24 C-7.34 23.67 -6.68 23.34 -6 23 C-5.31068656 20.65092125 -5.31068656 20.65092125 -4.875 17.9375 C-4.70742188 17.01839844 -4.53984375 16.09929687 -4.3671875 15.15234375 C-4.24601562 14.44207031 -4.12484375 13.73179687 -4 13 C-3.34 13 -2.68 13 -2 13 C-2.04125 12.154375 -2.0825 11.30875 -2.125 10.4375 C-1.98464972 6.57786731 -1.17219836 3.66311987 0 0 Z " fill="#F29E95" transform="translate(371,259)"/>
<path d="M0 0 C0.33 0.99 0.66 1.98 1 3 C1.99 3.33 2.98 3.66 4 4 C5.16796875 6.21484375 5.16796875 6.21484375 6.1875 8.9375 C6.70376953 10.28134766 6.70376953 10.28134766 7.23046875 11.65234375 C8 14 8 14 8 16 C8.66 16 9.32 16 10 16 C9.67 17.65 9.34 19.3 9 21 C9.66 21 10.32 21 11 21 C11.99 23.97 12.98 26.94 14 30 C10.86747312 26.86747312 9.02336783 23.68351716 7 19.8125 C6.64550781 19.13920654 6.29101562 18.46591309 5.92578125 17.7722168 C0 6.36811687 0 6.36811687 0 0 Z " fill="#F19789" transform="translate(133,279)"/>
<path d="M0 0 C0.66 0.33 1.32 0.66 2 1 C1.67 1.99 1.34 2.98 1 4 C-0.2065625 4.4640625 -0.2065625 4.4640625 -1.4375 4.9375 C-4.08022968 5.75159396 -4.08022968 5.75159396 -5.1875 7.8125 C-5.455625 8.534375 -5.72375 9.25625 -6 10 C-6.37125 10.9075 -6.7425 11.815 -7.125 12.75 C-7.558125 13.86375 -7.558125 13.86375 -8 15 C-9.32 15 -10.64 15 -12 15 C-12.33 15.66 -12.66 16.32 -13 17 C-14.97522846 18.04808041 -16.97481509 19.0520411 -19 20 C-18.34 18.68 -17.68 17.36 -17 16 C-16.34 16 -15.68 16 -15 16 C-14.76023438 15.43410156 -14.52046875 14.86820313 -14.2734375 14.28515625 C-12.73639857 11.52697289 -10.87656882 9.6479272 -8.625 7.4375 C-7.85414063 6.67308594 -7.08328125 5.90867188 -6.2890625 5.12109375 C-4.27286711 3.25284444 -2.23393837 1.59639888 0 0 Z " fill="#EE4B3A" transform="translate(174,143)"/>
<path d="M0 0 C0 0.66 0 1.32 0 2 C0.66 2 1.32 2 2 2 C1.63803085 4.67857172 1.26012724 6.60980914 -0.25 8.875 C-2 10 -2 10 -4.6875 9.6875 C-5.450625 9.460625 -6.21375 9.23375 -7 9 C-7.8125 7.3125 -7.8125 7.3125 -8 5 C-3.90909091 0 -3.90909091 0 0 0 Z " fill="#FA452F" transform="translate(174,150)"/>
<path d="M0 0 C0.75 1.625 0.75 1.625 1 4 C-0.8125 7.25 -0.8125 7.25 -3 10 C-3.66 10 -4.32 10 -5 10 C-4.67 11.65 -4.34 13.3 -4 15 C-4.99 15 -5.98 15 -7 15 C-7.33 15.99 -7.66 16.98 -8 18 C-8.66 18 -9.32 18 -10 18 C-10 18.66 -10 19.32 -10 20 C-10.99 20.33 -11.98 20.66 -13 21 C-10.04712581 13.14899327 -5.5780382 6.23427798 0 0 Z " fill="#F07567" transform="translate(154,163)"/>
<path d="M0 0 C0.66 0 1.32 0 2 0 C4.03993514 4.92984325 5.40652968 8.57960425 5 14 C5.66 14 6.32 14 7 14 C7 15.32 7 16.64 7 18 C7.66 18 8.32 18 9 18 C9.33 20.97 9.66 23.94 10 27 C3.86253659 19.55786622 0.32966796 9.56037098 0 0 Z " fill="#EF8279" transform="translate(252,165)"/>
<path d="M0 0 C7.44572748 5.54272517 7.44572748 5.54272517 10.5 8.0625 C13.26724107 10.20711183 16.14776875 12.02801437 19.1328125 13.8515625 C20.77866231 14.86386343 22.39227411 15.92818274 24 17 C18.25 17.125 18.25 17.125 16 16 C16 15.34 16 14.68 16 14 C15.443125 13.938125 14.88625 13.87625 14.3125 13.8125 C12 13 12 13 9.625 10.5625 C6.80051445 7.8052641 4.77595622 6.96594229 1 6 C0.67 4.02 0.34 2.04 0 0 Z " fill="#F39E93" transform="translate(290,199)"/>
<path d="M0 0 C0.33 0.99 0.66 1.98 1 3 C0.175 3.433125 -0.65 3.86625 -1.5 4.3125 C-2.325 4.869375 -3.15 5.42625 -4 6 C-4 6.99 -4 7.98 -4 9 C-7 11 -7 11 -10 11.9375 C-12.87001217 12.95396265 -14.11128681 13.69157276 -16 16 C-16.66 15.34 -17.32 14.68 -18 14 C-17.45730469 13.52949219 -16.91460937 13.05898438 -16.35546875 12.57421875 C-15.64003906 11.95160156 -14.92460937 11.32898438 -14.1875 10.6875 C-13.12595703 9.76517578 -13.12595703 9.76517578 -12.04296875 8.82421875 C-10.7836314 7.69972441 -9.55000078 6.54463086 -8.36328125 5.34375 C-5.76326563 2.78098389 -3.62602452 2 0 2 C0 1.34 0 0.68 0 0 Z " fill="#F37767" transform="translate(267,345)"/>
<path d="M0 0 C0 0.66 0 1.32 0 2 C-1.65 2.33 -3.3 2.66 -5 3 C-5.2784375 4.8871875 -5.2784375 4.8871875 -5.5625 6.8125 C-5.66691406 7.52019531 -5.77132812 8.22789062 -5.87890625 8.95703125 C-6.13904799 11.2025342 -6.13904799 11.2025342 -5 14 C-1.99152582 15.22520264 -1.99152582 15.22520264 1 16 C1 16.33 1 16.66 1 17 C-5.3782235 17.48137536 -5.3782235 17.48137536 -7.9375 15.5 C-9.44114391 11.96201434 -9.79827656 8.73268207 -9 5 C-5.99057097 0.98742796 -5.10203966 0 0 0 Z " fill="#ED8B7D" transform="translate(118,329)"/>
<path d="M0 0 C-2.69828162 1.79885441 -5.39820021 3.33757721 -8.25 4.875 C-12.53354355 7.19596384 -16.78170672 9.56276388 -21 12 C-21 10.35 -21 8.7 -21 7 C-20.05125 6.731875 -19.1025 6.46375 -18.125 6.1875 C-14.74732727 5.25013412 -14.74732727 5.25013412 -13 2 C-8.55578714 0.37615299 -4.71704317 -0.23009967 0 0 Z " fill="#F2897A" transform="translate(209,145)"/>
<path d="M0 0 C-1.1875 1.5 -1.1875 1.5 -3 3 C-5.6875 3.1875 -5.6875 3.1875 -8 3 C-8 3.66 -8 4.32 -8 5 C-12.53701494 6.45184478 -16.18061476 7.23509196 -21 7 C-19.31955675 3.63911349 -15.54837893 3.06217064 -12.1875 1.8125 C-11.46240234 1.52697266 -10.73730469 1.24144531 -9.99023438 0.94726562 C-9.28576172 0.68236328 -8.58128906 0.41746094 -7.85546875 0.14453125 C-6.89096802 -0.22128052 -6.89096802 -0.22128052 -5.90698242 -0.59448242 C-3.63631616 -1.07733694 -2.18583479 -0.7102067 0 0 Z " fill="#F07A6D" transform="translate(216,124)"/>
<path d="M0 0 C0.5775 0.20625 1.155 0.4125 1.75 0.625 C1.75 1.285 1.75 1.945 1.75 2.625 C-0.49976352 3.27165663 -2.74981967 3.91729523 -5 4.5625 C-6.25296875 4.92214844 -7.5059375 5.28179687 -8.796875 5.65234375 C-11.27561719 6.35054149 -13.74660162 7.02443726 -16.25 7.625 C-15.92 5.975 -15.59 4.325 -15.25 2.625 C-14.64671875 2.57601562 -14.0434375 2.52703125 -13.421875 2.4765625 C-12.62265625 2.40179688 -11.8234375 2.32703125 -11 2.25 C-9.81664062 2.14558594 -9.81664062 2.14558594 -8.609375 2.0390625 C-5.35143469 1.46730476 -3.28706583 -0.54784431 0 0 Z " fill="#F18A7A" transform="translate(225.25,137.375)"/>
<path d="M0 0 C2.97 0.495 2.97 0.495 6 1 C6 1.99 6 2.98 6 4 C7.64821244 5.03013277 9.31503702 6.03114628 11 7 C11 7.66 11 8.32 11 9 C11.99 9 12.98 9 14 9 C14.33 10.98 14.66 12.96 15 15 C9.72997792 10.60831493 4.64697949 6.0573621 0 1 C0 0.67 0 0.34 0 0 Z " fill="#F08A7F" transform="translate(227,363)"/>
<path d="M0 0 C0.33 0 0.66 0 1 0 C1 2.31 1 4.62 1 7 C0.34 7 -0.32 7 -1 7 C-1.12375 7.78375 -1.2475 8.5675 -1.375 9.375 C-2.16126424 13.9353326 -3.07700416 18.46567093 -4 23 C-6.0976806 16.28111326 -4.59230933 8.394363 -2 2 C-1.34 2 -0.68 2 0 2 C0 1.34 0 0.68 0 0 Z " fill="#EB7264" transform="translate(134,201)"/>
<path d="M0 0 C0.66 0.33 1.32 0.66 2 1 C1.31063929 4.91121498 0.21749819 8.55508596 -1.0625 12.3125 C-1.42472656 13.38113281 -1.78695312 14.44976562 -2.16015625 15.55078125 C-2.43730469 16.35902344 -2.71445313 17.16726562 -3 18 C-3.33 18 -3.66 18 -4 18 C-4 13.71 -4 9.42 -4 5 C-3.34 4.67 -2.68 4.34 -2 4 C-0.86649466 1.98330173 -0.86649466 1.98330173 0 0 Z " fill="#F08372" transform="translate(152,198)"/>
<path d="M0 0 C2.08432499 3.12648749 3.28558611 6.05730868 4.625 9.5625 C5.07101563 10.71878906 5.51703125 11.87507813 5.9765625 13.06640625 C7 16 7 16 7 18 C4.60449075 17.33916986 3.30915869 16.54070432 2.06640625 14.3671875 C0.04487152 9.43425586 -0.28382001 5.29797347 0 0 Z " fill="#F18A81" transform="translate(149,270)"/>
<path d="M0 0 C1.8871875 0.433125 1.8871875 0.433125 3.8125 0.875 C9.18101507 2.07180272 14.58344556 3.04830632 20 4 C20 4.33 20 4.66 20 5 C14.72 5 9.44 5 4 5 C4 4.34 4 3.68 4 3 C2.35 2.67 0.7 2.34 -1 2 C-0.67 1.34 -0.34 0.68 0 0 Z " fill="#F29083" transform="translate(318,218)"/>
<path d="M0 0 C0.33 0 0.66 0 1 0 C1.49079755 7.36196319 1.49079755 7.36196319 -0.875 10.4375 C-4.68705287 13.24048005 -7.26449511 13.33231613 -12 13 C-12.99 12.01 -13.98 11.02 -15 10 C-10.71 10 -6.42 10 -2 10 C-2 8.68 -2 7.36 -2 6 C-1.34 6 -0.68 6 0 6 C0 4.02 0 2.04 0 0 Z " fill="#F09F92" transform="translate(162,299)"/>
<path d="M0 0 C0.33 0.66 0.66 1.32 1 2 C1.99 2.33 2.98 2.66 4 3 C2.71451591 4.33929505 1.42141845 5.67128643 0.125 7 C-0.59429687 7.7425 -1.31359375 8.485 -2.0546875 9.25 C-4 11 -4 11 -6 11 C-6.33 10.01 -6.66 9.02 -7 8 C-5.68 8 -4.36 8 -3 8 C-2.814375 6.576875 -2.814375 6.576875 -2.625 5.125 C-2 2 -2 2 0 0 Z " fill="#F37565" transform="translate(260,370)"/>
<path d="M0 0 C3.65316671 1.24976756 4.78065836 1.67098753 7 5 C7.56074766 12.06542056 7.56074766 12.06542056 5.5 15.5 C4.7575 16.2425 4.7575 16.2425 4 17 C3.34 16.67 2.68 16.34 2 16 C2.66 15.34 3.32 14.68 4 14 C4.60491525 8.14457047 4.60491525 8.14457047 2 3.0625 C1.34 2.381875 0.68 1.70125 0 1 C0 0.67 0 0.34 0 0 Z " fill="#F0988F" transform="translate(384,329)"/>
<path d="M0 0 C2.17581687 2.84881728 4.20937999 5.76084088 6.1875 8.75 C6.71730469 9.54921875 7.24710937 10.3484375 7.79296875 11.171875 C8.19128906 11.77515625 8.58960938 12.3784375 9 13 C8.67 13.66 8.34 14.32 8 15 C4.42895561 13.12050295 2.45255699 11.82946843 1 8 C0.67 8 0.34 8 0 8 C0 5.36 0 2.72 0 0 Z " fill="#F28B7D" transform="translate(275,177)"/>
<path d="M0 0 C0.33 0 0.66 0 1 0 C1.125 2.875 1.125 2.875 1 6 C0.34 6.66 -0.32 7.32 -1 8 C-1.45811675 9.97235333 -1.45811675 9.97235333 -1.625 12.125 C-1.74875 13.40375 -1.8725 14.6825 -2 16 C-2.66 15.67 -3.32 15.34 -4 15 C-4.45356243 8.53673535 -3.59378942 5.39068413 0 0 Z " fill="#F1998C" transform="translate(341,292)"/>
<path d="M0 0 C7.23820173 0.34467627 11.91590189 2.10214991 18 6 C13.82356045 7.39214652 11.16562207 5.70664266 7.3125 4.0625 C6.61060547 3.77181641 5.90871094 3.48113281 5.18554688 3.18164062 C3.45349225 2.46289687 1.72626219 1.73254669 0 1 C0 0.67 0 0.34 0 0 Z " fill="#F2998C" transform="translate(305,232)"/>
<path d="M0 0 C0.33 0 0.66 0 1 0 C1.4731614 7.88602342 1.17981006 13.20780865 -3 20 C-4.16179779 16.51460663 -3.77071085 15.634577 -2.625 12.25 C-1.30292668 8.13285844 -0.46658066 4.29254211 0 0 Z " fill="#F2A79E" transform="translate(353,256)"/>
<path d="M0 0 C0.66 0.33 1.32 0.66 2 1 C0.83400384 4.49798849 0.20212888 4.74164064 -2.875 6.5 C-5.64286204 8.09330804 -7.82717282 9.64952029 -10 12 C-10.66 11.67 -11.32 11.34 -12 11 C-10.75323147 9.72599623 -9.5024352 8.45593346 -8.25 7.1875 C-7.55390625 6.47980469 -6.8578125 5.77210938 -6.140625 5.04296875 C-4.18571355 3.17724121 -2.19661447 1.56830358 0 0 Z " fill="#F5A69E" transform="translate(174,143)"/>
<path d="M0 0 C-0.95421808 1.14926266 -1.91352045 2.29430541 -2.875 3.4375 C-3.40867187 4.07558594 -3.94234375 4.71367187 -4.4921875 5.37109375 C-6 7 -6 7 -8 8 C-8.1875 5.125 -8.1875 5.125 -8 2 C-4.77208445 -0.1519437 -3.71599191 -0.20086443 0 0 Z " fill="#F1766A" transform="translate(274,362)"/>
<path d="M0 0 C1 3 1 3 0.00390625 5.48046875 C-0.47175781 6.37378906 -0.94742187 7.26710938 -1.4375 8.1875 C-1.91058594 9.08855469 -2.38367188 9.98960937 -2.87109375 10.91796875 C-3.24363281 11.60503906 -3.61617188 12.29210937 -4 13 C-4.33 13 -4.66 13 -5 13 C-5 10.69 -5 8.38 -5 6 C-4.34 6 -3.68 6 -3 6 C-3 4.68 -3 3.36 -3 2 C-2.01 2 -1.02 2 0 2 C0 1.34 0 0.68 0 0 Z " fill="#F19184" transform="translate(364,286)"/>
<path d="M0 0 C0.33 0 0.66 0 1 0 C1.33 2.97 1.66 5.94 2 9 C-2 11 -2 11 -4 11 C-2.7874262 7.27566618 -1.49140021 3.62197194 0 0 Z " fill="#F38A78" transform="translate(346,281)"/>
<path d="M0 0 C-0.33 1.32 -0.66 2.64 -1 4 C0.98 4 2.96 4 5 4 C5 4.33 5 4.66 5 5 C-0.39449293 5.27429625 -3.51925805 5.36055646 -8 2 C-4.77208445 -0.1519437 -3.71599191 -0.20086443 0 0 Z " fill="#EE523B" transform="translate(326,234)"/>
<path d="M0 0 C0.66 0 1.32 0 2 0 C5.42857143 8.42857143 5.42857143 8.42857143 5 13 C4.67 12.34 4.34 11.68 4 11 C3.34 11 2.68 11 2 11 C0 3.375 0 3.375 0 0 Z " fill="#ED8474" transform="translate(252,165)"/>
<path d="M0 0 C4.13621084 3.3810038 7.81316569 6.66590534 11 11 C7.56188206 10.71349017 6.25828807 10.26566773 3.8125 7.75 C2.13364416 5.20277045 0.98634436 2.87683772 0 0 Z " fill="#EF9082" transform="translate(234,344)"/>
<path d="M0 0 C0.58265625 0.23589844 1.1653125 0.47179687 1.765625 0.71484375 C-0.56770833 3.04817708 -2.90104167 5.38151042 -5.234375 7.71484375 C-7.359375 7.33984375 -7.359375 7.33984375 -9.234375 6.71484375 C-8.16721428 5.51278911 -7.07999163 4.32852042 -5.984375 3.15234375 C-5.38109375 2.49105469 -4.7778125 1.82976562 -4.15625 1.1484375 C-2.234375 -0.28515625 -2.234375 -0.28515625 0 0 Z " fill="#EF9387" transform="translate(282.234375,329.28515625)"/>
<path d="M0 0 C3.25059486 1.57604599 4.87908728 4.14943339 7.0625 7 C4.0925 6.505 4.0925 6.505 1.0625 6 C0.7325 5.01 0.4025 4.02 0.0625 3 C-2.9075 2.505 -2.9075 2.505 -5.9375 2 C-3.87474414 0.74761251 -2.43703105 0 0 0 Z " fill="#EE8276" transform="translate(218.9375,329)"/>
<path d="M0 0 C0.99 0.33 1.98 0.66 3 1 C2.45861782 4.78967525 0.84099612 6.51412839 -2 9 C-2.33 9 -2.66 9 -3 9 C-3 7.02 -3 5.04 -3 3 C-2.67 3.66 -2.34 4.32 -2 5 C-1.34 5 -0.68 5 0 5 C-0.2784375 4.0409375 -0.2784375 4.0409375 -0.5625 3.0625 C-0.706875 2.381875 -0.85125 1.70125 -1 1 C-0.67 0.67 -0.34 0.34 0 0 Z " fill="#F2776B" transform="translate(285,345)"/>
<path d="M0 0 C-4.75 4.875 -4.75 4.875 -7 6 C-7.33 4.35 -7.66 2.7 -8 1 C-5.29120665 -0.35439668 -2.99066732 -0.06501451 0 0 Z " fill="#F17866" transform="translate(186,158)"/>
<path d="M0 0 C1.14926266 0.95421808 2.29430541 1.91352045 3.4375 2.875 C4.07558594 3.40867187 4.71367187 3.94234375 5.37109375 4.4921875 C7 6 7 6 8 8 C3.25 7.125 3.25 7.125 1 6 C0.375 2.9375 0.375 2.9375 0 0 Z " fill="#ED8576" transform="translate(226,336)"/>
<path d="M0 0 C-1 3 -1 3 -4.0625 4.6875 C-5.031875 5.120625 -6.00125 5.55375 -7 6 C-7 4.35 -7 2.7 -7 1 C-4 0 -4 0 0 0 Z " fill="#F07C71" transform="translate(195,151)"/>
<path d="M0 0 C1.32 0 2.64 0 4 0 C4 0.66 4 1.32 4 2 C5.32 2 6.64 2 8 2 C8.66 3.65 9.32 5.3 10 7 C5.56541027 5.6062718 3.12621626 3.39417765 0 0 Z " fill="#F49A88" transform="translate(287,221)"/>
<path d="M0 0 C4.08378283 0.74250597 8.01939223 1.82923301 12 3 C12 3.33 12 3.66 12 4 C4.61538462 4.49230769 4.61538462 4.49230769 1.5 2 C1.005 1.34 0.51 0.68 0 0 Z " fill="#F29185" transform="translate(242,378)"/>
<path d="M0 0 C1.32 0 2.64 0 4 0 C4 0.66 4 1.32 4 2 C4.66 2 5.32 2 6 2 C6.33 3.65 6.66 5.3 7 7 C5.83040013 6.02433888 4.66438823 5.044375 3.5 4.0625 C2.8503125 3.51722656 2.200625 2.97195313 1.53125 2.41015625 C1.0259375 1.94480469 0.520625 1.47945313 0 1 C0 0.67 0 0.34 0 0 Z " fill="#EF8D80" transform="translate(218,354)"/>
<path d="M0 0 C4.875 4.75 4.875 4.75 6 7 C3.03 6.505 3.03 6.505 0 6 C0 4.02 0 2.04 0 0 Z " fill="#EF8377" transform="translate(284,192)"/>
<path d="M0 0 C0.33 1.32 0.66 2.64 1 4 C-1.4375 6.75 -1.4375 6.75 -4 9 C-4.66 8.67 -5.32 8.34 -6 8 C-4.02 5.36 -2.04 2.72 0 0 Z " fill="#F59A92" transform="translate(154,163)"/>
<path d="M0 0 C0.99 0 1.98 0 3 0 C3.33 1.32 3.66 2.64 4 4 C2.02 4.99 2.02 4.99 0 6 C-0.38218767 4.34385343 -0.71395102 2.67542976 -1 1 C-0.67 0.67 -0.34 0.34 0 0 Z " fill="#F36E5C" transform="translate(275,355)"/>
<path d="M0 0 C-1.125 1.5 -1.125 1.5 -3 3 C-6.1875 3.1875 -6.1875 3.1875 -9 3 C-8 1 -8 1 -5.0625 -0.1875 C-2 -1 -2 -1 0 0 Z " fill="#F2978E" transform="translate(204,128)"/>
<path d="M0 0 C2 1.375 2 1.375 4 3 C4 3.66 4 4.32 4 5 C4.66 5.33 5.32 5.66 6 6 C5.01 6 4.02 6 3 6 C3 5.34 3 4.68 3 4 C1.35 3.67 -0.3 3.34 -2 3 C-1 1 -1 1 0 0 Z " fill="#F17A6C" transform="translate(245,355)"/>
<path d="M0 0 C1.53166168 4.08443115 0.63081652 7.79455657 0 12 C-0.33 12 -0.66 12 -1 12 C-1.22162329 10.37675914 -1.42689803 8.751279 -1.625 7.125 C-1.74101562 6.22007812 -1.85703125 5.31515625 -1.9765625 4.3828125 C-1.98429688 3.59648437 -1.99203125 2.81015625 -2 2 C-1.34 1.34 -0.68 0.68 0 0 Z " fill="#F3A399" transform="translate(147,216)"/>
<path d="M0 0 C1.65 1.65 3.3 3.3 5 5 C3.68 5.33 2.36 5.66 1 6 C0.67 4.02 0.34 2.04 0 0 Z " fill="#F0806C" transform="translate(290,199)"/>
<path d="M0 0 C3.465 1.485 3.465 1.485 7 3 C6.01 4.32 5.02 5.64 4 7 C0 2.25 0 2.25 0 0 Z " fill="#F89386" transform="translate(268,201)"/>
<path d="M0 0 C2 1.125 2 1.125 4 3 C4.25 6.1875 4.25 6.1875 4 9 C1.18167487 7.59083743 0.97406539 5.92219617 0 3 C0 2.01 0 1.02 0 0 Z " fill="#F49E92" transform="translate(255,176)"/>
<path d="M0 0 C0.66 0 1.32 0 2 0 C2 0.66 2 1.32 2 2 C2.99 1.67 3.98 1.34 5 1 C3.70700306 3.88437779 2.34058637 5.87219421 0 8 C0 5.36 0 2.72 0 0 Z " fill="#F59083" transform="translate(160,179)"/>
<path d="M0 0 C0.33 0.99 0.66 1.98 1 3 C-0.50663783 6.01327566 -3.03166411 6.61056618 -6 8 C-5.34 6.68 -4.68 5.36 -4 4 C-3.34 4 -2.68 4 -2 4 C-1.34 2.68 -0.68 1.36 0 0 Z " fill="#F3A99E" transform="translate(161,155)"/>
<path d="M0 0 C0 0.66 0 1.32 0 2 C-2.64 2 -5.28 2 -8 2 C-6.14210462 -1.71579076 -3.44525918 -1.06921837 0 0 Z " fill="#EB7062" transform="translate(227,138)"/>
</svg>
