<?xml version="1.0" encoding="UTF-8"?>
<svg version="1.1" xmlns="http://www.w3.org/2000/svg" width="500" height="500">
<path d="M0 0 C0.97130859 -0.01224609 1.94261719 -0.02449219 2.94335938 -0.03710938 C3.88373047 -0.03904297 4.82410156 -0.04097656 5.79296875 -0.04296875 C6.63754639 -0.04707764 7.48212402 -0.05118652 8.35229492 -0.05541992 C12.37189952 0.34147465 15.10349571 1.57571703 18.1484375 4.203125 C20.57580544 8.55643277 19.91869828 12.08833366 19.4375 16.9375 C17.81286075 39.09149657 22.2346588 59.74877419 36.91796875 77.00390625 C37.54316406 77.72449219 38.16835938 78.44507813 38.8125 79.1875 C39.43769531 80.0125 40.06289063 80.8375 40.70703125 81.6875 C50.8986505 93.78886608 68.3724807 101.68763615 83.8125 104.1875 C86.34560502 104.24613264 88.84800184 104.25718864 91.37890625 104.21484375 C92.84830499 104.20220387 94.31770615 104.18984245 95.78710938 104.17773438 C98.08691057 104.15288363 100.38658405 104.12483236 102.6862793 104.09155273 C104.91716315 104.06132525 107.14788284 104.04357537 109.37890625 104.02734375 C110.06441055 104.01388412 110.74991486 104.0004245 111.45619202 103.98655701 C115.05808969 103.96766677 117.86955602 103.98970373 120.8125 106.1875 C123.20677321 109.52014633 123.07032049 112.70723082 123.078125 116.71875 C123.08070313 118.00523437 123.08328125 119.29171875 123.0859375 120.6171875 C123.08174805 121.28717773 123.07755859 121.95716797 123.07324219 122.64746094 C123.06268182 124.65297145 123.07411724 126.65855901 123.0859375 128.6640625 C123.04475533 149.37869456 117.46112584 167.99237589 107.8125 186.1875 C107.08933594 187.59515625 107.08933594 187.59515625 106.3515625 189.03125 C104.97939778 191.28382098 103.99207613 192.70558069 101.8125 194.1875 C97.94413059 195.11364976 94.68274587 195.08713593 90.8125 194.1875 C88.125 192.1875 88.125 192.1875 86.8125 189.1875 C86.29677322 182.96654571 87.06062308 179.87203973 90.5 174.5 C99.83069587 159.19321068 103.01974854 142.92873097 103.8125 125.1875 C102.92691406 125.22230469 102.04132813 125.25710938 101.12890625 125.29296875 C73.10675031 125.90531555 49.35552853 115.88389733 28.17578125 97.6328125 C26.8125 96.1875 26.8125 96.1875 26.8125 94.1875 C26.19375 93.960625 25.575 93.73375 24.9375 93.5 C22.19839791 91.80820165 21.76225528 90.19505839 20.8125 87.1875 C20.1525 87.1875 19.4925 87.1875 18.8125 87.1875 C3.45662898 66.16984201 -0.87272379 44.82892574 -0.1875 19.1875 C-32.42275966 22.99914976 -60.03003713 33.2733818 -81.47265625 58.91015625 C-90.01008015 70.24801076 -95.56334943 81.89695187 -99.9375 95.375 C-100.14858398 96.01614746 -100.35966797 96.65729492 -100.57714844 97.31787109 C-107.7716926 120.45500532 -103.92182357 148.86489808 -93.1875 170.1875 C-92.10546174 172.04242273 -91.02207 173.89655643 -89.9375 175.75 C-87.23310525 180.65772143 -86.22996139 183.63377604 -87.1875 189.1875 C-88.5625 192.1875 -88.5625 192.1875 -91.1875 194.1875 C-95.62112676 195.01972562 -99.64622009 195.18724913 -103.5 192.6875 C-104.056875 191.8625 -104.61375 191.0375 -105.1875 190.1875 C-106.3321875 188.6096875 -106.3321875 188.6096875 -107.5 187 C-118.91108352 168.12240504 -123.61660888 146.23569335 -123.5 124.4375 C-123.49817719 123.73062042 -123.49635437 123.02374084 -123.49447632 122.29544067 C-123.44962036 111.9705348 -123.05647847 102.17108234 -120.1875 92.1875 C-119.8471875 90.96160156 -119.506875 89.73570312 -119.15625 88.47265625 C-112.26149717 65.90165798 -98.98536111 43.78472176 -80.1875 29.1875 C-78.88619141 28.14916016 -78.88619141 28.14916016 -77.55859375 27.08984375 C-54.74987447 9.38347445 -29.05462575 0.01951284 0 0 Z " fill="#F94A35" transform="translate(250.1875,134.8125)"/>
<path d="M0 0 C7.29701722 1.97879023 12.76482967 10.09761629 16.99836731 15.89964294 C24.56667739 25.89771132 32.43525573 34.430561 45.32858467 36.3997097 C57.9312182 37.73767799 70.63576166 37.21833775 83.27210999 36.68370056 C88.85673701 36.47203981 94.44307826 36.39424203 100.03083801 36.30955505 C106.3020396 36.21198409 112.56980567 36.10308863 118.83804321 35.8822937 C119.78227142 35.85158279 120.72649963 35.82087189 121.69934082 35.78923035 C123.45802732 35.73017724 125.21646287 35.66281827 126.97444153 35.58551025 C134.29679586 35.35027714 134.29679586 35.35027714 137.28669739 37.62010193 C139.28457827 40.61692325 139.64604967 41.56095339 139.78669739 44.99510193 C139.86404114 46.12045349 139.86404114 46.12045349 139.94294739 47.26853943 C139.11736189 50.22688747 137.58504807 51.65708497 135.21413803 53.54561806 C131.46696216 55.63454362 127.47095167 55.32153974 123.27742004 55.28294373 C122.28477646 55.29331161 121.29213287 55.3036795 120.26940918 55.31436157 C116.99610246 55.34141043 113.72413777 55.33177281 110.45075989 55.31932068 C108.16921109 55.3252309 105.8876654 55.33247816 103.60612488 55.34100342 C98.82630751 55.35288094 94.04695587 55.34618129 89.26716614 55.32688904 C83.15142541 55.30402323 77.03707599 55.33075946 70.92147255 55.3719511 C66.20982982 55.39756877 61.49851808 55.39493791 56.7868309 55.384058 C54.53264987 55.38257404 52.27844314 55.39022955 50.02432632 55.40730858 C46.86695664 55.42734541 43.71202257 55.40883239 40.55476379 55.38059998 C39.6298262 55.39431641 38.70488861 55.40803284 37.75192261 55.42216492 C31.01370582 55.30217917 27.1345225 53.26638219 22.28669739 48.62010193 C20.90092816 46.99677226 19.5602847 45.33285728 18.28669739 43.62010193 C16.64301598 41.93076271 14.97240979 40.26750269 13.28669739 38.62010193 C11.95200835 37.28812568 10.61877818 35.95468663 9.28669739 34.62010193 C8.60349426 33.93818787 7.92029114 33.2562738 7.21638489 32.55369568 C6.04957957 31.3845284 4.88686637 30.21122951 3.73200989 29.03025818 C1.26151387 26.49548954 1.26151387 26.49548954 -1.71330261 24.62010193 C-2.43517761 25.34197693 -3.15705261 26.06385193 -3.90080261 26.80760193 C-10.30705261 33.21385193 -10.30705261 33.21385193 -16.71330261 39.62010193 C-17.43517761 40.38322693 -18.15705261 41.14635193 -18.90080261 41.93260193 C-20.71330261 43.62010193 -20.71330261 43.62010193 -22.71330261 43.62010193 C-22.97111511 44.21435974 -23.22892761 44.80861755 -23.49455261 45.42088318 C-24.81167239 47.79760892 -26.12674195 49.08795766 -28.21330261 50.80760193 C-28.82174011 51.31678162 -29.43017761 51.8259613 -30.05705261 52.35057068 C-32.76839139 54.42883743 -34.46912727 54.74907575 -37.82371521 54.77400208 C-38.68445145 54.78260254 -39.54518768 54.791203 -40.43200684 54.80006409 C-41.85177071 54.80645401 -41.85177071 54.80645401 -43.30021667 54.81297302 C-44.29548874 54.82115051 -45.2907608 54.829328 -46.31619263 54.8377533 C-49.62043145 54.86263076 -52.92462723 54.87912961 -56.22892761 54.89353943 C-57.91947392 54.90152494 -57.91947392 54.90152494 -59.64417267 54.90967178 C-65.60975464 54.93641393 -71.57531562 54.95578521 -77.54093933 54.97019958 C-83.70605229 54.98684751 -89.87063071 55.03162408 -96.03554153 55.08257103 C-100.77275717 55.11621194 -105.50984547 55.12777363 -110.24716949 55.13342667 C-112.51977879 55.14014811 -114.79237944 55.15539319 -117.06487274 55.17931747 C-120.24662941 55.21090217 -123.42693843 55.21101531 -126.60881042 55.20359802 C-127.54722275 55.22000336 -128.48563507 55.23640869 -129.45248413 55.25331116 C-133.83432705 55.21151112 -136.80132223 55.01979057 -140.29942322 52.22840881 C-142.71330261 49.62010193 -142.71330261 49.62010193 -143.43986511 47.30369568 C-143.16487572 41.2221994 -143.16487572 41.2221994 -140.83830261 38.12010193 C-136.60614563 35.132697 -133.18216949 35.65763741 -128.18156433 35.92259216 C-119.00781853 36.35267836 -109.83844647 36.62339554 -100.65649223 36.80480862 C-95.10798222 36.92137825 -89.57433765 37.09426879 -84.03312683 37.40647888 C-55.45214657 39.4047616 -55.45214657 39.4047616 -30.56193542 27.39793396 C-23.38146385 20.83889485 -17.083383 13.4748603 -11.1999054 5.74597168 C-7.9094356 1.60957318 -5.40940412 -0.1695104 0 0 Z " fill="#FB452E" transform="translate(251.7133026123047,310.37989807128906)"/>
<path d="M0 0 C0.495 1.485 0.495 1.485 1 3 C3.16874252 2.49396008 4.99967627 2.00016187 7 1 C7.99 1.66 8.98 2.32 10 3 C10 6.38023517 9.12544378 8.83468937 8 12 C8.99 12 9.98 12 11 12 C11.33 10.68 11.66 9.36 12 8 C13.65 8.33 15.3 8.66 17 9 C13.4914429 13.18374334 9.91473058 17.18564713 6 21 C5.154375 21.845625 4.30875 22.69125 3.4375 23.5625 C2.633125 24.366875 1.82875 25.17125 1 26 C-0.0828125 27.1446875 -0.0828125 27.1446875 -1.1875 28.3125 C-3 30 -3 30 -5 30 C-5.2578125 30.59425781 -5.515625 31.18851562 -5.78125 31.80078125 C-7.09836977 34.177507 -8.41343934 35.46785573 -10.5 37.1875 C-11.1084375 37.69667969 -11.716875 38.20585937 -12.34375 38.73046875 C-15.05508877 40.8087355 -16.75582466 41.12897382 -20.1104126 41.15390015 C-20.97114883 41.16250061 -21.83188507 41.17110107 -22.71870422 41.17996216 C-24.13846809 41.18635208 -24.13846809 41.18635208 -25.58691406 41.19287109 C-26.58218613 41.20104858 -27.57745819 41.20922607 -28.60289001 41.21765137 C-31.90712884 41.24252883 -35.21132462 41.25902768 -38.515625 41.2734375 C-40.2061713 41.28142302 -40.2061713 41.28142302 -41.93087006 41.28956985 C-47.89645203 41.316312 -53.862013 41.33568328 -59.82763672 41.35009766 C-65.99274968 41.36674558 -72.15732809 41.41152215 -78.32223892 41.4624691 C-83.05945456 41.49611001 -87.79654286 41.50767171 -92.53386688 41.51332474 C-94.80647617 41.52004618 -97.07907683 41.53529126 -99.35157013 41.55921555 C-102.5333268 41.59080024 -105.71363581 41.59091338 -108.89550781 41.58349609 C-109.83392014 41.59990143 -110.77233246 41.61630676 -111.73918152 41.63320923 C-116.12102444 41.59140919 -119.08801962 41.39968864 -122.58612061 38.60830688 C-125 36 -125 36 -125.7265625 33.68359375 C-125.69304687 32.94238281 -125.65953125 32.20117188 -125.625 31.4375 C-125.61726563 30.69371094 -125.60953125 29.94992187 -125.6015625 29.18359375 C-124.72930674 26.01741862 -123.65647247 24.96419378 -121 23 C-117.92627952 22.48875907 -114.91110276 22.66305423 -111.80712891 22.80322266 C-109.87708613 22.85505978 -107.94704255 22.90686703 -106.01699829 22.95864868 C-104.48156813 23.01095579 -104.48156813 23.01095579 -102.91511917 23.06431961 C-97.45509085 23.23511758 -91.99325615 23.28996917 -86.53125 23.3671875 C-79.59704551 23.47390834 -72.66779995 23.6124832 -65.73730469 23.8671875 C-37.30609721 26.19004436 -37.30609721 26.19004436 -12.24809074 15.52517509 C-7.44680308 10.90909277 -3.46679378 5.68339827 0 0 Z " fill="#F94630" transform="translate(234,324)"/>
<path d="M0 0 C3.06320351 0.8442879 4.58533753 2.34667853 6.89770508 4.51635742 C7.77128662 5.33257568 8.64486816 6.14879395 9.54492188 6.98974609 C14.04487163 11.3260759 18.50032176 15.70094059 22.90942383 20.12963867 C23.81821289 21.03456055 24.72700195 21.93948242 25.66333008 22.87182617 C26.52055664 23.7303418 27.3777832 24.58885742 28.26098633 25.47338867 C29.03522949 26.24875977 29.80947266 27.02413086 30.60717773 27.82299805 C32.28442383 29.62963867 32.28442383 29.62963867 32.28442383 30.62963867 C26.53442383 30.75463867 26.53442383 30.75463867 24.28442383 29.62963867 C23.95442383 28.96963867 23.62442383 28.30963867 23.28442383 27.62963867 C21.48125162 31.59661753 20.79239392 35.31189287 20.28442383 39.62963867 C19.62442383 39.62963867 18.96442383 39.62963867 18.28442383 39.62963867 C18.28442383 40.61963867 18.28442383 41.60963867 18.28442383 42.62963867 C17.62442383 42.62963867 16.96442383 42.62963867 16.28442383 42.62963867 C14.83911133 41.12573242 14.83911133 41.12573242 13.15942383 39.06713867 C10.61388302 36.04664371 8.01523623 33.45883053 4.97192383 30.94213867 C1.99893425 28.43493663 0.22986794 26.52959565 -0.71557617 22.62963867 C-1.70557617 22.95963867 -2.69557617 23.28963867 -3.71557617 23.62963867 C-3.71557617 22.96963867 -3.71557617 22.30963867 -3.71557617 21.62963867 C-4.37557617 21.95963867 -5.03557617 22.28963867 -5.71557617 22.62963867 C-6.04557617 23.61963867 -6.37557617 24.60963867 -6.71557617 25.62963867 C-7.70557617 25.62963867 -8.69557617 25.62963867 -9.71557617 25.62963867 C-9.43713867 24.45401367 -9.43713867 24.45401367 -9.15307617 23.25463867 C-8.45595351 20.65874092 -8.45595351 20.65874092 -9.71557617 18.62963867 C-9.38557617 17.96963867 -9.05557617 17.30963867 -8.71557617 16.62963867 C-9.70557617 16.29963867 -10.69557617 15.96963867 -11.71557617 15.62963867 C-12.70557617 16.28963867 -13.69557617 16.94963867 -14.71557617 17.62963867 C-15.70557617 16.63963867 -16.69557617 15.64963867 -17.71557617 14.62963867 C-18.12083527 15.28888336 -18.52609436 15.94812805 -18.94363403 16.62734985 C-24.64229696 25.23731824 -31.86044967 34.42907188 -42.21580505 37.33006287 C-56.57127204 40.00382126 -71.69162205 38.78088293 -86.19171143 38.14025879 C-91.89576347 37.91265803 -97.6020152 37.81420101 -103.30932617 37.70385742 C-114.45046274 37.46991382 -125.58190954 37.09597278 -136.71557617 36.62963867 C-136.71557617 36.29963867 -136.71557617 35.96963867 -136.71557617 35.62963867 C-135.58394043 35.68817017 -134.45230469 35.74670166 -133.28637695 35.80700684 C-122.46718638 36.3444895 -111.65395014 36.7019561 -100.82302856 36.89647675 C-95.25621814 37.00189595 -89.70489735 37.16405067 -84.14526367 37.47094727 C-55.50080528 39.43968819 -55.50080528 39.43968819 -30.55541992 27.40307617 C-23.37640927 20.84583296 -17.08037164 13.4830367 -11.20019531 5.7545166 C-7.90624411 1.61175071 -5.41060289 -0.14540343 0 0 Z " fill="#F84630" transform="translate(251.715576171875,310.370361328125)"/>
<path d="M0 0 C0.63284409 0.64939545 1.26568817 1.29879089 1.91770935 1.96786499 C6.13350936 4.74731566 9.37352663 4.56041271 14.31665039 4.51416016 C15.71262199 4.52484779 15.71262199 4.52484779 17.13679504 4.53575134 C20.20729849 4.55502143 23.27711246 4.54675535 26.34765625 4.5390625 C28.48328153 4.54896788 30.61889826 4.56090851 32.75450134 4.57479858 C38.37374505 4.60717255 43.99279379 4.61755411 49.61212158 4.62164307 C58.61008228 4.63039734 67.60788277 4.66584173 76.60571098 4.7138176 C79.7499829 4.72642151 82.89405323 4.72564314 86.03834534 4.72354126 C87.96314653 4.73012074 89.88794632 4.73712683 91.81274414 4.74462891 C93.125896 4.73844292 93.125896 4.73844292 94.46557617 4.73213196 C95.27160782 4.7375148 96.07763947 4.74289764 96.90809631 4.7484436 C97.60585206 4.74877909 98.30360781 4.74911457 99.02250767 4.74946022 C101.4121163 5.05221336 102.96130382 5.72200557 105 7 C106.99788088 9.99682132 107.35935228 10.94085146 107.5 14.375 C107.5515625 15.12523437 107.603125 15.87546875 107.65625 16.6484375 C106.8310303 19.60547477 105.30273545 21.04045611 102.93233299 22.92845154 C99.15921907 25.02077953 95.12669329 24.67491233 90.91137695 24.61523438 C89.9107019 24.62078339 88.91002686 24.6263324 87.87902832 24.63204956 C84.58162093 24.64383126 81.28559186 24.6195895 77.98828125 24.59375 C75.69475874 24.59203885 73.40123426 24.59210462 71.10771179 24.59387207 C66.30688711 24.5922198 61.50652995 24.57353411 56.70581055 24.54199219 C50.54507763 24.50224815 44.38495507 24.49795533 38.22411823 24.50545502 C33.49127079 24.50852018 28.75856121 24.49642142 24.0257473 24.47932434 C21.75349987 24.47228324 19.48123683 24.46917115 17.20897865 24.47001648 C14.03917646 24.46822402 10.87011414 24.44689114 7.70043945 24.41992188 C6.75752548 24.42285248 5.81461151 24.42578308 4.84312439 24.42880249 C3.98101349 24.4174527 3.11890259 24.40610291 2.23066711 24.39440918 C1.48166799 24.39068047 0.73266886 24.38695175 -0.03902721 24.38311005 C-2 24 -2 24 -5 21 C30.31 21.33 65.62 21.66 102 22 C101.67 20.35 101.34 18.7 101 17 C102.9375 14.6875 102.9375 14.6875 105 13 C104.34 13 103.68 13 103 13 C103 11.68 103 10.36 103 9 C101.76638229 8.99857498 100.53276459 8.99714996 99.26176453 8.99568176 C87.65147887 8.97903194 76.04154462 8.93632008 64.43144512 8.86790943 C58.46213924 8.83357881 52.49309094 8.80851999 46.52368164 8.80444336 C40.76575025 8.80017348 35.00840052 8.77181941 29.25065041 8.72656822 C27.05099688 8.71355127 24.85127388 8.70930029 22.65158653 8.71384621 C19.57656969 8.7187223 16.50327261 8.69279232 13.4284668 8.65942383 C12.05606087 8.67236229 12.05606087 8.67236229 10.65592957 8.68556213 C8.32935126 8.64307445 6.25673725 8.56644103 4 8 C1.73074125 5.36469265 1.09321622 3.27964865 0 0 Z " fill="#EF6F61" transform="translate(284,341)"/>
<path d="M0 0 C1.875 0.3125 1.875 0.3125 4 1 C5.99788088 3.99682132 6.35935228 4.94085146 6.5 8.375 C6.5515625 9.12523437 6.603125 9.87546875 6.65625 10.6484375 C5.8310303 13.60547477 4.30273545 15.04045611 1.93233299 16.92845154 C-1.84078093 19.02077953 -5.87330671 18.67491233 -10.08862305 18.61523438 C-11.0892981 18.62078339 -12.08997314 18.6263324 -13.12097168 18.63204956 C-16.41837907 18.64383126 -19.71440814 18.6195895 -23.01171875 18.59375 C-25.30524126 18.59203885 -27.59876574 18.59210462 -29.89228821 18.59387207 C-34.69311289 18.5922198 -39.49347005 18.57353411 -44.29418945 18.54199219 C-50.45492237 18.50224815 -56.61504493 18.49795533 -62.77588177 18.50545502 C-67.50872921 18.50852018 -72.24143879 18.49642142 -76.9742527 18.47932434 C-79.24650013 18.47228324 -81.51876317 18.46917115 -83.79102135 18.47001648 C-86.96082354 18.46822402 -90.12988586 18.44689114 -93.29956055 18.41992188 C-94.24247452 18.42285248 -95.18538849 18.42578308 -96.15687561 18.42880249 C-97.01898651 18.4174527 -97.88109741 18.40610291 -98.76933289 18.39440918 C-99.51833201 18.39068047 -100.26733114 18.38695175 -101.03902721 18.38311005 C-103 18 -103 18 -106 15 C-70.69 15.33 -35.38 15.66 1 16 C0.505 13.525 0.505 13.525 0 11 C1.9375 8.6875 1.9375 8.6875 4 7 C3.34 7 2.68 7 2 7 C1.34 4.69 0.68 2.38 0 0 Z " fill="#F0867C" transform="translate(385,347)"/>
<path d="M0 0 C0 0.99 0 1.98 0 3 C-2.3125 5 -2.3125 5 -5 7 C-5.556875 7.556875 -6.11375 8.11375 -6.6875 8.6875 C-9.05689131 11.05689131 -10.90269658 11.12887828 -14.12387085 11.14717102 C-15.41931068 11.15790398 -15.41931068 11.15790398 -16.74092102 11.16885376 C-18.16539803 11.17288712 -18.16539803 11.17288712 -19.61865234 11.17700195 C-20.61713699 11.18357315 -21.61562164 11.19014435 -22.6443634 11.19691467 C-25.95822213 11.21667321 -29.27203553 11.22831487 -32.5859375 11.23828125 C-34.28022825 11.24439454 -34.28022825 11.24439454 -36.0087471 11.25063133 C-41.98499622 11.2715012 -47.9612223 11.28579997 -53.9375 11.29516602 C-60.12066244 11.30624313 -66.30346625 11.34065571 -72.48650169 11.38033772 C-77.23221523 11.4064368 -81.97784237 11.4148518 -86.72362137 11.41844749 C-89.00344902 11.42332942 -91.2832724 11.43498871 -93.56303024 11.45348549 C-96.74983209 11.47773788 -99.93569343 11.47693735 -103.12255859 11.4699707 C-104.54096291 11.48918579 -104.54096291 11.48918579 -105.98802185 11.50878906 C-112.40996254 11.45748972 -112.40996254 11.45748972 -115.61734009 8.97062683 C-116.07361786 8.32031998 -116.52989563 7.67001312 -117 7 C-116.01 7.33 -115.02 7.66 -114 8 C-112.56583536 8.08852978 -111.12788769 8.1219878 -109.69099426 8.12025452 C-108.81179825 8.12162918 -107.93260223 8.12300385 -107.02676392 8.12442017 C-106.06507294 8.12082489 -105.10338196 8.11722961 -104.11254883 8.11352539 C-103.09773941 8.11367142 -102.08292999 8.11381744 -101.03736877 8.1139679 C-97.67723465 8.11327026 -94.31715571 8.10548478 -90.95703125 8.09765625 C-88.62961355 8.09579154 -86.30219546 8.09436789 -83.97477722 8.09336853 C-77.84435953 8.08954751 -71.71396547 8.07972074 -65.58355713 8.06866455 C-59.32979655 8.05844152 -53.07603215 8.05386899 -46.82226562 8.04882812 C-34.54816669 8.03809813 -22.27408531 8.02102666 -10 8 C-9.67 7.01 -9.34 6.02 -9 5 C-6.68895182 3.94952356 -4.35416349 2.94992562 -2 2 C-1.34 1.34 -0.68 0.68 0 0 Z " fill="#F0857B" transform="translate(228,354)"/>
<path d="M0 0 C0.495 1.98 0.495 1.98 1 4 C0.34 4.515625 -0.32 5.03125 -1 5.5625 C-6.20622885 9.79256094 -11.22841329 13.90887878 -15.48034668 19.12866211 C-21.34403669 26.1577516 -26.4535443 31.67932969 -35.89769745 32.69752502 C-40.87603919 32.90717085 -45.8052293 32.76816104 -50.78125 32.5625 C-52.93305974 32.53258595 -55.08497991 32.50984461 -57.23693848 32.49389648 C-62.84917336 32.43335474 -68.45457777 32.27673032 -74.06414795 32.09863281 C-79.80875245 31.93372277 -85.5544824 31.86162428 -91.30078125 31.78125 C-102.53682449 31.61063691 -113.76784029 31.33828803 -125 31 C-125 30.67 -125 30.34 -125 30 C-123.86170242 30.05186966 -122.72340485 30.10373932 -121.5506134 30.15718079 C-110.68582542 30.63236748 -99.82604119 30.94578456 -88.95201588 31.11140156 C-83.3630659 31.2014474 -77.78666677 31.34318502 -72.20336914 31.61499023 C-42.62697109 33.52003385 -42.62697109 33.52003385 -17.27475643 20.45152187 C-10.8383303 14.19960069 -5.20229834 7.2974853 0 0 Z " fill="#FFACA5" transform="translate(240,316)"/>
<path d="M0 0 C0.97422425 3.14634668 0.9753644 5.54423268 0.578125 8.80078125 C-0.15459226 15.92586572 -0.23875848 23.03000112 -0.25 30.1875 C-0.25233643 30.87087433 -0.25467285 31.55424866 -0.25708008 32.2583313 C-0.26879274 41.34615766 0.13182287 49.97112562 2.34375 58.80859375 C3.13426954 62.65296555 3.10234526 66.08102937 3 70 C0.95873128 66.93809691 0.29592142 64.79155016 -0.5625 61.25 C-0.81128906 60.24453125 -1.06007812 59.2390625 -1.31640625 58.203125 C-3.1381975 49.6667317 -3.23714307 41.2429089 -3.25 32.5625 C-3.25233643 31.84811768 -3.25467285 31.13373535 -3.25708008 30.39770508 C-3.26995284 20.00002734 -2.78549059 10.08082309 0 0 Z " fill="#EF8F83" transform="translate(130,227)"/>
<path d="M0 0 C1.04702186 3.7264085 1.07442057 7.13013042 1 11 C-0.98 11.66 -2.96 12.32 -5 13 C-5.0825 13.99 -5.165 14.98 -5.25 16 C-6.07747948 21.82781974 -9.02201718 27.66038238 -13 32 C-13.66 32 -14.32 32 -15 32 C-15.33 34.64 -15.66 37.28 -16 40 C-16.66 40 -17.32 40 -18 40 C-16.86492466 32.82105417 -14.86490069 26.58423604 -11.8125 20 C-11.41683838 19.13149414 -11.02117676 18.26298828 -10.61352539 17.36816406 C-7.67270106 11.06935206 -4.41788161 5.3980547 0 0 Z " fill="#F17868" transform="translate(149,187)"/>
<path d="M0 0 C4.11193736 0.11798252 8.22363288 0.24221059 12.33520508 0.37231445 C13.73489199 0.41571434 15.13463359 0.45738564 16.53442383 0.49731445 C18.54261495 0.55489445 20.55061149 0.61914 22.55859375 0.68359375 C23.76829834 0.72025146 24.97800293 0.75690918 26.22436523 0.79467773 C29 1 29 1 30 2 C30.74523698 14.96365725 30.4855036 27.94316835 23 39 C22 37 22 37 22.48828125 34.96875 C22.76027344 34.1540625 23.03226562 33.339375 23.3125 32.5 C26.37636444 22.70682599 27.43926537 13.24078515 28 3 C27.06800781 3.02320313 26.13601563 3.04640625 25.17578125 3.0703125 C16.56670275 3.19218014 8.49461718 2.60437964 0 1 C0 0.67 0 0.34 0 0 Z " fill="#F09F92" transform="translate(326,257)"/>
<path d="M0 0 C0.66 0 1.32 0 2 0 C1.9278125 0.66 1.855625 1.32 1.78125 2 C0.32969869 17.48321397 0.1021745 33.54627809 2 49 C0 47 0 47 -0.1953125 44.8359375 C-0.17210937 44.02382813 -0.14890625 43.21171875 -0.125 42.375 C-0.09792969 41.14910156 -0.09792969 41.14910156 -0.0703125 39.8984375 C-0.04710937 39.27195312 -0.02390625 38.64546875 0 38 C-0.99 38 -1.98 38 -3 38 C-3.61916858 10.83596307 -3.61916858 10.83596307 0 0 Z " fill="#EE8C7D" transform="translate(146,234)"/>
<path d="M0 0 C0.66 0.33 1.32 0.66 2 1 C1.360625 1.61875 0.72125 2.2375 0.0625 2.875 C-3.48322939 6.38009066 -6.67493068 10.20192409 -9.9140625 13.98828125 C-12 16 -12 16 -15 16 C-15 16.99 -15 17.98 -15 19 C-15.928125 19.391875 -16.85625 19.78375 -17.8125 20.1875 C-21.32738633 22.18616085 -22.03924604 23.58999312 -24 27 C-26.6875 28.8125 -26.6875 28.8125 -29 30 C-23.36577282 17.41102363 -10.97137611 7.814807 0 0 Z " fill="#EE6555" transform="translate(179,157)"/>
<path d="M0 0 C1.43421295 -0.00021904 1.43421295 -0.00021904 2.8973999 -0.0004425 C6.06817874 0.000256 9.23889935 0.00804549 12.40966797 0.01586914 C14.60399341 0.01773354 16.79831926 0.01915734 18.99264526 0.02015686 C24.77619571 0.02398029 30.55972117 0.03380911 36.34326172 0.04486084 C42.24169578 0.0550787 48.14013387 0.05965529 54.03857422 0.06469727 C65.6180123 0.07543151 77.19743181 0.09250586 88.77685547 0.11352539 C88.77685547 0.44352539 88.77685547 0.77352539 88.77685547 1.11352539 C87.0082592 1.12898659 87.0082592 1.12898659 85.20393372 1.14476013 C74.09475026 1.24249778 62.98562277 1.34523229 51.87653065 1.45286465 C46.16518377 1.50803926 40.45383171 1.56145057 34.74243164 1.61083984 C29.23108683 1.65856389 23.71980356 1.71090967 18.20853233 1.76646614 C16.10540994 1.78685325 14.0022707 1.8055723 11.89911842 1.82259941 C8.95441218 1.84672407 6.00982156 1.87676766 3.06518555 1.90820312 C1.75966988 1.91683632 1.75966988 1.91683632 0.42778015 1.92564392 C-3.58134246 1.97432129 -7.31068557 2.12053618 -11.22314453 3.11352539 C-11.22314453 2.45352539 -11.22314453 1.79352539 -11.22314453 1.11352539 C-7.774363 -0.61086538 -3.79503385 -0.01500711 0 0 Z " fill="#DD5040" transform="translate(122.22314453125,346.886474609375)"/>
<path d="M0 0 C2.77551187 2.77551187 2.25813866 4.4532 2.265625 8.3359375 C2.26820313 9.62886719 2.27078125 10.92179688 2.2734375 12.25390625 C2.26924805 12.93211426 2.26505859 13.61032227 2.26074219 14.30908203 C2.25022008 16.33267525 2.26053909 18.35534407 2.2734375 20.37890625 C2.25082023 31.83455446 0.78415477 42.32881235 -2.625 53.25 C-2.85445313 54.00667969 -3.08390625 54.76335937 -3.3203125 55.54296875 C-3.87354252 57.36401756 -4.43574882 59.18233588 -5 61 C-5.33 61 -5.66 61 -6 61 C-6.09765625 54.84765625 -6.09765625 54.84765625 -6 53 C-5.505 52.505 -5.505 52.505 -5 52 C-4.63239269 49.67182036 -4.29758419 47.3381615 -4 45 C-3.34 45 -2.68 45 -2 45 C-2 41.04 -2 37.08 -2 33 C-1.34 33 -0.68 33 0 33 C0 22.11 0 11.22 0 0 Z " fill="#ED8D80" transform="translate(371,243)"/>
<path d="M0 0 C4.48643308 5.15108983 9.20240304 11.19476691 9.5625 18.25 C8.90876771 22.60821528 8.52521785 24.31411973 5 27 C1.62547028 27.40727083 -1.61918785 27.29033692 -5 27 C-5 26.67 -5 26.34 -5 26 C-2.03 25.67 0.94 25.34 4 25 C4 24.01 4 23.02 4 22 C3.34 22 2.68 22 2 22 C2 21.34 2 20.68 2 20 C3.65 20 5.3 20 7 20 C6.690625 19.38125 6.38125 18.7625 6.0625 18.125 C5.375 16.75 4.6875 15.375 4 14 C3.34 14 2.68 14 2 14 C2 10.7 2 7.4 2 4 C1.34 4 0.68 4 0 4 C0 2.68 0 1.36 0 0 Z " fill="#F47467" transform="translate(154,302)"/>
<path d="M0 0 C0.66 0 1.32 0 2 0 C4.4294516 3.6441774 4.16179575 5.71241272 4 10 C5.32 10.33 6.64 10.66 8 11 C8.28875 12.093125 8.5775 13.18625 8.875 14.3125 C9.81893204 18.04013845 9.81893204 18.04013845 12 21 C12 22.32 12 23.64 12 25 C12.66 25 13.32 25 14 25 C14 25.66 14 26.32 14 27 C14.66 27.33 15.32 27.66 16 28 C16 28.99 16 29.98 16 31 C10.91755419 29.3058514 9.35556007 24.59714143 7 20 C5.64556728 17.04606645 4.37101136 14.06361827 3.125 11.0625 C2.8146582 10.31677734 2.50431641 9.57105469 2.18457031 8.80273438 C0.94667342 5.73386909 0 3.34000556 0 0 Z " fill="#EE7A6C" transform="translate(133,297)"/>
<path d="M0 0 C0.33 0.66 0.66 1.32 1 2 C-0.12845619 4.63604978 -1.3169002 7.14244268 -2.625 9.6875 C-2.96917969 10.38294922 -3.31335938 11.07839844 -3.66796875 11.79492188 C-6.0677037 16.53683355 -8.52374679 20.96272252 -12 25 C-14.89453125 25.68359375 -14.89453125 25.68359375 -17.8125 25.4375 C-19.27623047 25.34275391 -19.27623047 25.34275391 -20.76953125 25.24609375 C-21.50558594 25.16488281 -22.24164063 25.08367187 -23 25 C-23 24.67 -23 24.34 -23 24 C-20.03 24 -17.06 24 -14 24 C-13.87625 23.236875 -13.7525 22.47375 -13.625 21.6875 C-13 19 -13 19 -11 16 C-9.68 16 -8.36 16 -7 16 C-7 14.68 -7 13.36 -7 12 C-6.34 12 -5.68 12 -5 12 C-5 10.02 -5 8.04 -5 6 C-4.01 6 -3.02 6 -2 6 C-2 4.35 -2 2.7 -2 1 C-1.34 0.67 -0.68 0.34 0 0 Z " fill="#F26A5E" transform="translate(364,304)"/>
<path d="M0 0 C0.33 1.32 0.66 2.64 1 4 C0.01 4.7734375 0.01 4.7734375 -1 5.5625 C-10.27974178 13.1022902 -18.60686566 21.5003122 -27 30 C-27.66 29.67 -28.32 29.34 -29 29 C-19.43 19.43 -9.86 9.86 0 0 Z " fill="#FDCFC8" transform="translate(240,316)"/>
<path d="M0 0 C0.33 0 0.66 0 1 0 C1.33 3.63 1.66 7.26 2 11 C2.99 11 3.98 11 5 11 C5.33 10.34 5.66 9.68 6 9 C6.66 8.34 7.32 7.68 8 7 C9.32 7 10.64 7 12 7 C12 8.98 12 10.96 12 13 C10.3973218 13.10824843 8.79254252 13.18570645 7.1875 13.25 C6.29417969 13.29640625 5.40085937 13.3428125 4.48046875 13.390625 C2 13 2 13 0.19140625 11.24609375 C-1.70744318 7.66629565 -1.26292629 5.00962588 -1 1 C-0.67 0.67 -0.34 0.34 0 0 Z " fill="#F24A32" transform="translate(338,315)"/>
<path d="M0 0 C-0.33 0.66 -0.66 1.32 -1 2 C-5.95 2 -10.9 2 -16 2 C-16 1.34 -16 0.68 -16 0 C-22.93 0 -29.86 0 -37 0 C-37 -0.33 -37 -0.66 -37 -1 C-32.81258759 -1.16891611 -28.62505782 -1.33473105 -24.4375 -1.5 C-23.25607422 -1.54769531 -22.07464844 -1.59539062 -20.85742188 -1.64453125 C-3.62546009 -2.32029446 -3.62546009 -2.32029446 0 0 Z " fill="#F69E91" transform="translate(371,241)"/>
<path d="M0 0 C2.97 0.33 5.94 0.66 9 1 C9 1.66 9 2.32 9 3 C15.93 3 22.86 3 30 3 C30 3.66 30 4.32 30 5 C26.85424793 5.05896868 23.7086414 5.09391603 20.5625 5.125 C19.24475586 5.15013672 19.24475586 5.15013672 17.90039062 5.17578125 C12.28093967 5.21725321 6.25026313 5.24892446 1 3 C0.67 2.01 0.34 1.02 0 0 Z " fill="#E45544" transform="translate(325,238)"/>
<path d="M0 0 C1.875 0.3125 1.875 0.3125 4 1 C6.66195958 4.99293937 6.72919332 8.30263837 6 13 C4 15.5625 4 15.5625 2 17 C1.34 16.67 0.68 16.34 0 16 C-0.25 13.75 -0.25 13.75 0 11 C2 8.6875 2 8.6875 4 7 C3.34 7 2.68 7 2 7 C1.34 4.69 0.68 2.38 0 0 Z " fill="#EF6755" transform="translate(385,347)"/>
<path d="M0 0 C1.67542976 0.28604898 3.34385343 0.61781233 5 1 C0.88220146 5.92127143 -3.41462494 10.51454836 -8 15 C-9.00114482 15.99885387 -10.00150943 16.99849284 -11 18 C-11 16.68 -11 15.36 -11 14 C-10.34 14 -9.68 14 -9 14 C-9 13.01 -9 12.02 -9 11 C-8.34 10.67 -7.68 10.34 -7 10 C-7 9.34 -7 8.68 -7 8 C-6.01 8 -5.02 8 -4 8 C-4 7.01 -4 6.02 -4 5 C-2.68 5 -1.36 5 0 5 C-0.2784375 4.0409375 -0.2784375 4.0409375 -0.5625 3.0625 C-0.706875 2.381875 -0.85125 1.70125 -1 1 C-0.67 0.67 -0.34 0.34 0 0 Z " fill="#F29188" transform="translate(177,178)"/>
<path d="M0 0 C0.99 0.33 1.98 0.66 3 1 C3 2.32 3 3.64 3 5 C3.66 5 4.32 5 5 5 C5.33 7.64 5.66 10.28 6 13 C7.32 13 8.64 13 10 13 C10 14.98 10 16.96 10 19 C10.66 19 11.32 19 12 19 C11.67 20.32 11.34 21.64 11 23 C9.72298179 20.98285723 8.45339806 18.9616067 7.1875 16.9375 C6.83107422 16.37611328 6.47464844 15.81472656 6.10742188 15.23632812 C0 5.43083429 0 5.43083429 0 0 Z " fill="#F2978B" transform="translate(256,196)"/>
<path d="M0 0 C0.99 0.495 0.99 0.495 2 1 C1.98952637 1.74572266 1.97905273 2.49144531 1.96826172 3.25976562 C1.92641555 6.67314213 1.90058324 10.08646442 1.875 13.5 C1.85824219 14.67304688 1.84148437 15.84609375 1.82421875 17.0546875 C1.78834582 23.44006945 2.17108837 28.88457674 4 35 C4.125 38 4.125 38 4 40 C-0.44597127 34.97411944 -0.12519293 29.2951451 -0.09765625 22.8515625 C-0.09553383 21.86547501 -0.09553383 21.86547501 -0.09336853 20.85946655 C-0.08781762 18.78126269 -0.07527465 16.70317073 -0.0625 14.625 C-0.05747864 13.20703282 -0.05291685 11.78906393 -0.04882812 10.37109375 C-0.03786437 6.91402678 -0.02063421 3.45702433 0 0 Z " fill="#E84C36" transform="translate(266,140)"/>
<path d="M0 0 C1.17571451 3.67410785 1.07366746 7.16929183 1 11 C-1.31 11.66 -3.62 12.32 -6 13 C-3.10933941 3.40546697 -3.10933941 3.40546697 0 0 Z " fill="#F04A33" transform="translate(149,187)"/>
<path d="M0 0 C4.88049925 3.9419417 9.0580583 8.11950075 13 13 C7.25 13.125 7.25 13.125 5 12 C5.33 10.68 5.66 9.36 6 8 C5.34 8 4.68 8 4 8 C2.21694476 5.36107824 1.00940379 3.02821137 0 0 Z " fill="#F48D7E" transform="translate(271,328)"/>
<path d="M0 0 C0.33 0 0.66 0 1 0 C1.03738281 0.56847656 1.07476562 1.13695312 1.11328125 1.72265625 C1.56812234 7.06480947 2.7629287 11.07844315 5 16 C5.76838854 18.65187751 6.38564707 21.30629871 7 24 C6.34 24.33 5.68 24.66 5 25 C5 23.35 5 21.7 5 20 C4.34 20 3.68 20 3 20 C2.87625 19.195625 2.7525 18.39125 2.625 17.5625 C2.41875 16.716875 2.2125 15.87125 2 15 C1.34 14.67 0.68 14.34 0 14 C0 9.38 0 4.76 0 0 Z " fill="#ED7768" transform="translate(145,272)"/>
<path d="M0 0 C2.31 0 4.62 0 7 0 C6.41879395 0.28915283 5.83758789 0.57830566 5.23876953 0.8762207 C3.20999136 1.89459212 1.1936581 2.93321423 -0.8203125 3.98046875 C-2.25509929 4.71635848 -3.68999826 5.45202952 -5.125 6.1875 C-5.85332031 6.56841797 -6.58164063 6.94933594 -7.33203125 7.34179688 C-9.19158025 8.28875759 -11.09350717 9.15150594 -13 10 C-13.66 9.67 -14.32 9.34 -15 9 C-14.67 8.34 -14.34 7.68 -14 7 C-14.66 7 -15.32 7 -16 7 C-15.67 6.34 -15.34 5.68 -15 5 C-12.69 5.33 -10.38 5.66 -8 6 C-8 5.34 -8 4.68 -8 4 C-5.36 3.34 -2.72 2.68 0 2 C0 1.34 0 0.68 0 0 Z " fill="#F6A095" transform="translate(211,159)"/>
<path d="M0 0 C1.32 0 2.64 0 4 0 C4 0.99 4 1.98 4 3 C5.65 3 7.3 3 9 3 C8.67 4.32 8.34 5.64 8 7 C8.99 7 9.98 7 11 7 C11.33 8.65 11.66 10.3 12 12 C6.88327027 8.49777237 3.09355668 5.41372419 0 0 Z " fill="#F0867A" transform="translate(251,334)"/>
<path d="M0 0 C0 2.58316784 -0.1323633 5.05639773 -0.375 7.625 C-0.44460937 8.42164063 -0.51421875 9.21828125 -0.5859375 10.0390625 C-0.72257813 10.68617188 -0.85921875 11.33328125 -1 12 C-1.99 12.495 -1.99 12.495 -3 13 C-3.66 12.67 -4.32 12.34 -5 12 C-5.33 12.99 -5.66 13.98 -6 15 C-6.33 14.34 -6.66 13.68 -7 13 C-5.8203125 10.21484375 -5.8203125 10.21484375 -4.125 6.9375 C-3.57070312 5.85339844 -3.01640625 4.76929688 -2.4453125 3.65234375 C-1 1 -1 1 0 0 Z " fill="#F69288" transform="translate(144,195)"/>
<path d="M0 0 C0 0.66 0 1.32 0 2 C-3 4 -3 4 -6 4 C-6 4.99 -6 5.98 -6 7 C-9.52948291 8.66670026 -11.28272326 9.13583456 -15 8 C-12.8782637 6.66121428 -10.75294812 5.32884524 -8.625 4 C-8.02171875 3.6184375 -7.4184375 3.236875 -6.796875 2.84375 C-2.2265625 0 -2.2265625 0 0 0 Z " fill="#F28E84" transform="translate(196,148)"/>
<path d="M0 0 C4.88049925 3.9419417 9.0580583 8.11950075 13 13 C12.41734375 12.70351563 11.8346875 12.40703125 11.234375 12.1015625 C9.25928099 11.12782734 7.27739489 10.23274399 5.25 9.375 C4.1775 8.92125 3.105 8.4675 2 8 C2.66 7.67 3.32 7.34 4 7 C3.01 5.824375 3.01 5.824375 2 4.625 C0 2 0 2 0 0 Z " fill="#F59A8D" transform="translate(258,315)"/>
<path d="M0 0 C0.33 0.66 0.66 1.32 1 2 C0.37915039 3.69580078 0.37915039 3.69580078 -0.65234375 5.6953125 C-1.01650391 6.41074219 -1.38066406 7.12617188 -1.75585938 7.86328125 C-2.14580078 8.60964844 -2.53574219 9.35601562 -2.9375 10.125 C-3.32357422 10.87910156 -3.70964844 11.63320313 -4.10742188 12.41015625 C-5.06452132 14.27709097 -6.03136106 16.13902628 -7 18 C-8.24546405 15.50907189 -7.7767578 14.58919267 -7 12 C-6.34 12 -5.68 12 -5 12 C-5 10.02 -5 8.04 -5 6 C-4.01 6 -3.02 6 -2 6 C-2 4.35 -2 2.7 -2 1 C-1.34 0.67 -0.68 0.34 0 0 Z " fill="#F3A39A" transform="translate(364,304)"/>
<path d="M0 0 C0.66 0.33 1.32 0.66 2 1 C-2.51957599 6.50906896 -6.57416213 10.78708106 -13 14 C-11.45493286 10.14174662 -9.04184365 8.01484232 -5.9375 5.3125 C-5.03902344 4.52488281 -4.14054688 3.73726562 -3.21484375 2.92578125 C-2.48394531 2.29027344 -1.75304687 1.65476563 -1 1 C-0.67 0.67 -0.34 0.34 0 0 Z " fill="#F7AFA6" transform="translate(172,162)"/>
<path d="M0 0 C1.65 0 3.3 0 5 0 C4.125 5.875 4.125 5.875 3 7 C1.31391034 7.07205511 -0.37500659 7.08386068 -2.0625 7.0625 C-2.98160156 7.05347656 -3.90070313 7.04445313 -4.84765625 7.03515625 C-5.55792969 7.02355469 -6.26820313 7.01195312 -7 7 C-7 6.67 -7 6.34 -7 6 C-2.545 5.505 -2.545 5.505 2 5 C2 4.01 2 3.02 2 2 C1.34 2 0.68 2 0 2 C0 1.34 0 0.68 0 0 Z " fill="#E96959" transform="translate(156,322)"/>
<path d="M0 0 C4.22228421 0.60318346 5.43020723 1.21944298 7.9375 4.5625 C7.380625 4.46710938 6.82375 4.37171875 6.25 4.2734375 C0.5485271 3.44518299 -3.56074076 3.86195623 -9.0625 5.5625 C-6.32379793 2.13912242 -4.41315885 0.18972459 0 0 Z " fill="#F4A298" transform="translate(250.0625,310.4375)"/>
<path d="M0 0 C4.82419514 3.13572684 9.42284316 6.5148552 14 10 C13.01 10.495 13.01 10.495 12 11 C9.96855359 10.06553465 7.96466413 9.06775224 6 8 C6 7.34 6 6.68 6 6 C5.071875 5.9071875 5.071875 5.9071875 4.125 5.8125 C2 5 2 5 0.75 2.4375 C0.5025 1.633125 0.255 0.82875 0 0 Z " fill="#F1958A" transform="translate(291,218)"/>
<path d="M0 0 C3.91939465 3.80411834 7.49102731 7.81576108 11 12 C10.67 12.66 10.34 13.32 10 14 C1.33479212 7.10284464 1.33479212 7.10284464 -0.0625 2.5 C-0.041875 1.675 -0.02125 0.85 0 0 Z " fill="#F2A097" transform="translate(280,204)"/>
<path d="M0 0 C-1.58093054 1.12837409 -3.16484716 2.25256518 -4.75 3.375 C-5.63171875 4.00148437 -6.5134375 4.62796875 -7.421875 5.2734375 C-9.57414979 6.71480941 -11.65460523 7.91498093 -14 9 C-13.67 8.38125 -13.34 7.7625 -13 7.125 C-11.85806765 5.08981656 -11.85806765 5.08981656 -12 3 C-10.68 3 -9.36 3 -8 3 C-8 2.34 -8 1.68 -8 1 C-2.25 -1.125 -2.25 -1.125 0 0 Z " fill="#F39789" transform="translate(196,170)"/>
<path d="M0 0 C0.66 0 1.32 0 2 0 C4.4294516 3.6441774 4.16179575 5.71241272 4 10 C4.66 10 5.32 10 6 10 C6 11.65 6 13.3 6 15 C2.35219334 10.8310781 0 5.55196264 0 0 Z " fill="#F09182" transform="translate(133,297)"/>
<path d="M0 0 C2.64 0 5.28 0 8 0 C7.01 0.495 7.01 0.495 6 1 C6.60183749 3.02045442 7.27306096 5.02111039 8 7 C8.66 7.33 9.32 7.66 10 8 C7 8 7 8 4.4375 5.6875 C2 3 2 3 0 0 Z " fill="#F0786B" transform="translate(270,353)"/>
<path d="M0 0 C2.92477319 2.92477319 4.30875009 5.02014991 4.4375 9.125 C4 13 4 13 2.5 15 C2.005 15.33 1.51 15.66 1 16 C1.020625 14.845 1.04125 13.69 1.0625 12.5 C1.07007769 8.25649453 0.59974765 4.19823356 0 0 Z " fill="#F09385" transform="translate(159,311)"/>
<path d="M0 0 C2.475 0.495 2.475 0.495 5 1 C5 1.99 5 2.98 5 4 C5.99 4.33 6.98 4.66 8 5 C8.33 6.65 8.66 8.3 9 10 C6.00675737 8.9024777 5.15389099 8.32317108 3.75 5.375 C3.5025 4.59125 3.255 3.8075 3 3 C2.34 3 1.68 3 1 3 C0.67 2.01 0.34 1.02 0 0 Z " fill="#F08C80" transform="translate(268,219)"/>
<path d="M0 0 C1.875 0.3125 1.875 0.3125 4 1 C6.13586678 4.20380017 6.23132175 5.01939967 6.125 8.6875 C6.10695313 9.49574219 6.08890625 10.30398438 6.0703125 11.13671875 C6.03550781 12.05904297 6.03550781 12.05904297 6 13 C5.67 13 5.34 13 5 13 C5 11.02 5 9.04 5 7 C4.01 7 3.02 7 2 7 C1.34 4.69 0.68 2.38 0 0 Z " fill="#F49089" transform="translate(385,347)"/>
<path d="M0 0 C5.99291003 0.41330414 9.25036599 1.31903365 14 5 C11.26980214 6.06528748 10.20701188 6.07998186 7.421875 5.00390625 C6.54015625 4.52824219 5.6584375 4.05257812 4.75 3.5625 C3.85796875 3.08941406 2.9659375 2.61632812 2.046875 2.12890625 C1.37140625 1.75636719 0.6959375 1.38382813 0 1 C0 0.67 0 0.34 0 0 Z " fill="#F1958A" transform="translate(302,248)"/>
<path d="M0 0 C2.97 0.495 2.97 0.495 6 1 C5.67 1.66 5.34 2.32 5 3 C5.78375 3.061875 6.5675 3.12375 7.375 3.1875 C8.24125 3.455625 9.1075 3.72375 10 4 C11.3125 6.5625 11.3125 6.5625 12 9 C7.09198451 7.51272258 3.59508707 4.55364515 0 1 C0 0.67 0 0.34 0 0 Z " fill="#F19687" transform="translate(283,235)"/>
<path d="M0 0 C1.15957207 3.47871621 0.77456651 4.34219645 -0.4375 7.6875 C-0.86869141 8.89986328 -0.86869141 8.89986328 -1.30859375 10.13671875 C-1.53675781 10.75160156 -1.76492187 11.36648437 -2 12 C-2.66 12 -3.32 12 -4 12 C-4 9.36 -4 6.72 -4 4 C-3.34 4 -2.68 4 -2 4 C-1.67 3.01 -1.34 2.02 -1 1 C-0.67 0.67 -0.34 0.34 0 0 Z " fill="#F18B7C" transform="translate(151,222)"/>
<path d="M0 0 C0.99 0.99 1.98 1.98 3 3 C1.50079488 6.11373372 -0.08152136 9.12228205 -2 12 C-2.66 12 -3.32 12 -4 12 C-3.52309796 10.37433394 -3.04340334 8.74948689 -2.5625 7.125 C-2.29566406 6.22007812 -2.02882813 5.31515625 -1.75390625 4.3828125 C-1 2 -1 2 0 0 Z " fill="#F38C80" transform="translate(347,296)"/>
<path d="M0 0 C2.69389457 3.08181538 3.37639942 5.12330349 3.5625 9.1875 C3.64542566 11.77550996 3.64542566 11.77550996 4 14 C4.66 14.33 5.32 14.66 6 15 C5.01 16.485 5.01 16.485 4 18 C1.49014321 12.26318447 -0.39461791 6.31388659 0 0 Z " fill="#F3ACA1" transform="translate(251,178)"/>
<path d="M0 0 C0 3.68553144 -0.8522582 5.03759752 -3 8 C-5.6875 9.8125 -5.6875 9.8125 -8 11 C-6.63629701 8.00779732 -5.05091917 5.70973471 -2.875 3.25 C-2.33617187 2.63640625 -1.79734375 2.0228125 -1.2421875 1.390625 C-0.62730469 0.70226562 -0.62730469 0.70226562 0 0 Z " fill="#F3A598" transform="translate(158,176)"/>
<path d="M0 0 C2.64 0.33 5.28 0.66 8 1 C8.33 1.99 8.66 2.98 9 4 C8.34 4 7.68 4 7 4 C7 4.99 7 5.98 7 7 C6.34 7 5.68 7 5 7 C3.7109375 5.46875 3.7109375 5.46875 2.375 3.5 C1.70597656 2.52546875 1.70597656 2.52546875 1.0234375 1.53125 C0.68570312 1.0259375 0.34796875 0.520625 0 0 Z " fill="#F3796C" transform="translate(263,346)"/>
<path d="M0 0 C0.33 0 0.66 0 1 0 C1.66 4.29 2.32 8.58 3 13 C-1 9 -1 9 -1.42578125 6.89453125 C-1.11111111 1.11111111 -1.11111111 1.11111111 0 0 Z " fill="#F0A39A" transform="translate(338,315)"/>
<path d="M0 0 C1.67542976 0.28604898 3.34385343 0.61781233 5 1 C2.34345343 4.73884332 0.41889613 6.64978174 -4 8 C-4 7.01 -4 6.02 -4 5 C-2.68 5 -1.36 5 0 5 C-0.2784375 4.0409375 -0.2784375 4.0409375 -0.5625 3.0625 C-0.706875 2.381875 -0.85125 1.70125 -1 1 C-0.67 0.67 -0.34 0.34 0 0 Z " fill="#EE7565" transform="translate(177,178)"/>
<path d="M0 0 C0.75410156 0.00451172 1.50820312 0.00902344 2.28515625 0.01367188 C4.14847127 0.02546501 6.01174555 0.04340058 7.875 0.0625 C7.875 0.3925 7.875 0.7225 7.875 1.0625 C6.55435547 1.15337891 6.55435547 1.15337891 5.20703125 1.24609375 C3.46486328 1.37177734 3.46486328 1.37177734 1.6875 1.5 C0.53894531 1.58121094 -0.60960938 1.66242188 -1.79296875 1.74609375 C-4.64098171 2.01653812 -7.33710482 2.43771747 -10.125 3.0625 C-10.125 2.4025 -10.125 1.7425 -10.125 1.0625 C-6.93675432 -0.53162284 -3.49603338 -0.03924735 0 0 Z " fill="#E56F63" transform="translate(121.125,346.9375)"/>
<path d="M0 0 C0.99 0 1.98 0 3 0 C3 1.98 3 3.96 3 6 C3.66 6 4.32 6 5 6 C4.67 7.32 4.34 8.64 4 10 C0 4.5 0 4.5 0 0 Z " fill="#F28B80" transform="translate(263,209)"/>
<path d="M0 0 C0.33 1.32 0.66 2.64 1 4 C-0.65 5.32 -2.3 6.64 -4 8 C-4.33 7.01 -4.66 6.02 -5 5 C-3.35 3.35 -1.7 1.7 0 0 Z " fill="#EF968B" transform="translate(240,316)"/>
<path d="M0 0 C1.65 0 3.3 0 5 0 C3.95125002 2.62187494 3.35068687 3.79371361 0.875 5.25 C0.25625 5.4975 -0.3625 5.745 -1 6 C-0.67 4.02 -0.34 2.04 0 0 Z " fill="#F4938B" transform="translate(230,348)"/>
<path d="M0 0 C1.65 0.33 3.3 0.66 5 1 C4.07347299 2.17539996 3.13336613 3.34010577 2.1875 4.5 C1.66542969 5.1496875 1.14335937 5.799375 0.60546875 6.46875 C-1 8 -1 8 -4 8 C-3.525625 7.608125 -3.05125 7.21625 -2.5625 6.8125 C-0.64820367 4.59191626 -0.38733012 2.86624291 0 0 Z " fill="#F8A397" transform="translate(246,332)"/>
<path d="M0 0 C-3.69172595 3.53790403 -7.09390595 3.59115883 -12 4 C-10.720327 1.44065399 -9.75798964 1.3010767 -7.125 0.3125 C-6.07699219 -0.09548828 -6.07699219 -0.09548828 -5.0078125 -0.51171875 C-3 -1 -3 -1 0 0 Z " fill="#F4B1A7" transform="translate(208,144)"/>
<path d="M0 0 C0 0.99 0 1.98 0 3 C-1.62935241 4.37868281 -3.29749607 5.71274093 -5 7 C-5.33 7.66 -5.66 8.32 -6 9 C-6.66 8.67 -7.32 8.34 -8 8 C-7.8125 6.125 -7.8125 6.125 -7 4 C-4.5625 2.875 -4.5625 2.875 -2 2 C-1.34 1.34 -0.68 0.68 0 0 Z " fill="#F7ACA3" transform="translate(228,354)"/>
<path d="M0 0 C1.18771723 3.42943519 0.80226223 5.37784675 -0.4375 8.75 C-0.86869141 9.94882812 -0.86869141 9.94882812 -1.30859375 11.171875 C-1.65083984 12.07679688 -1.65083984 12.07679688 -2 13 C-2.33 13 -2.66 13 -3 13 C-3.27429625 7.60550707 -3.36055646 4.48074195 0 0 Z " fill="#F6A39B" transform="translate(368,291)"/>
<path d="M0 0 C2.97 0.33 5.94 0.66 9 1 C9 1.66 9 2.32 9 3 C6.36 3 3.72 3 1 3 C0.67 2.01 0.34 1.02 0 0 Z " fill="#F28C7E" transform="translate(325,238)"/>
<path d="M0 0 C1.65 0 3.3 0 5 0 C4.1875 1.9375 4.1875 1.9375 3 4 C2.01 4.33 1.02 4.66 0 5 C0 3.35 0 1.7 0 0 Z " fill="#F38B81" transform="translate(236,342)"/>
<path d="M0 0 C1.98 0.99 1.98 0.99 4 2 C4 2.66 4 3.32 4 4 C4.66 4.33 5.32 4.66 6 5 C6 5.99 6 6.98 6 8 C2.24623848 6.74874616 1.75926711 5.4347596 0 2 C0 1.34 0 0.68 0 0 Z " fill="#F19C8E" transform="translate(143,320)"/>
<path d="M0 0 C1.125 3.75 1.125 3.75 0 6 C-0.66 6 -1.32 6 -2 6 C-2 6.66 -2 7.32 -2 8 C-2.66 8 -3.32 8 -4 8 C-2.25 2.25 -2.25 2.25 0 0 Z " fill="#F09687" transform="translate(149,187)"/>
<path d="M0 0 C0.66 0 1.32 0 2 0 C2.33 0.99 2.66 1.98 3 3 C2 4 2 4 -0.50390625 4.09765625 C-2.01791016 4.08025391 -2.01791016 4.08025391 -3.5625 4.0625 C-4.57441406 4.05347656 -5.58632813 4.04445313 -6.62890625 4.03515625 C-7.41136719 4.02355469 -8.19382812 4.01195312 -9 4 C-9 3.67 -9 3.34 -9 3 C-6.03 3 -3.06 3 0 3 C0 2.01 0 1.02 0 0 Z " fill="#ED8B80" transform="translate(350,325)"/>
<path d="M0 0 C0.33 0 0.66 0 1 0 C1 1.98 1 3.96 1 6 C-0.32 6.33 -1.64 6.66 -3 7 C-1.125 1.125 -1.125 1.125 0 0 Z " fill="#F28E84" transform="translate(342,308)"/>
<path d="M0 0 C0.33 0 0.66 0 1 0 C3.28571429 8.42857143 3.28571429 8.42857143 3 13 C0.95204577 11.0373772 0.05023362 9.5722693 -0.19921875 6.73046875 C-0.18858877 4.48045617 -0.12958525 2.24614438 0 0 Z " fill="#E97F71" transform="translate(267,167)"/>
<path d="M0 0 C0.8125 1.6875 0.8125 1.6875 1 4 C-1.4375 6.75 -1.4375 6.75 -4 9 C-3.67 7.02 -3.34 5.04 -3 3 C-2.01 3 -1.02 3 0 3 C0 2.01 0 1.02 0 0 Z " fill="#F05645" transform="translate(245,333)"/>
<path d="M0 0 C0.99 0.33 1.98 0.66 3 1 C1.68 3.31 0.36 5.62 -1 8 C-1.33 8 -1.66 8 -2 8 C-2 6.35 -2 4.7 -2 3 C-1.34 3 -0.68 3 0 3 C0 2.01 0 1.02 0 0 Z " fill="#F39A88" transform="translate(161,199)"/>
</svg>
