<?xml version="1.0" encoding="UTF-8"?>
<svg version="1.1" xmlns="http://www.w3.org/2000/svg" width="512" height="512">
<path d="M0 0 C2.30582442 0.00315136 4.61034924 -0.02036856 6.91601562 -0.0456543 C21.01295193 -0.10656866 34.46260952 2.04800167 48.00976562 6.00317383 C49.32315918 6.38554199 49.32315918 6.38554199 50.66308594 6.77563477 C90.30584147 18.76731759 124.3703572 47.01077736 144.10351562 83.37402344 C156.63506796 107.40914921 163.02385164 132.68852647 162.94726562 159.75317383 C162.94605713 160.54558472 162.94484863 161.33799561 162.94360352 162.15441895 C162.88967885 175.22325839 162.06166976 187.65627585 158.57226562 200.31567383 C158.1775708 201.75160889 158.1775708 201.75160889 157.77490234 203.21655273 C152.95022083 220.13160761 146.07894222 236.20179721 135.89672852 250.61108398 C135.27238419 251.49655914 134.64803986 252.3820343 134.004776 253.29434204 C133.29568336 254.29490128 133.29568336 254.29490128 132.57226562 255.31567383 C133.46071891 255.31787367 133.46071891 255.31787367 134.36712074 255.32011795 C148.78986876 255.35719561 163.21240397 255.41622293 177.63495827 255.49957657 C184.60967003 255.53935878 191.5842691 255.57175533 198.55908203 255.58666992 C205.28953122 255.60108284 212.01958077 255.63620314 218.74988937 255.68398285 C221.31828146 255.69882607 223.8867234 255.70671652 226.45515823 255.70755768 C230.05137672 255.7099201 233.64662436 255.73694387 237.24267578 255.76977539 C238.30578979 255.76474503 239.36890381 255.75971466 240.4642334 255.75453186 C246.49506842 255.83977694 249.97066918 256.31410047 254.57226562 260.31567383 C258.20060226 264.13497555 258.88227021 267.19846389 259.07226562 272.31567383 C258.88227021 277.43288377 258.20060226 280.49637211 254.57226562 284.31567383 C249.98935412 287.97626887 246.48652811 288.89566007 240.75390625 288.8236084 C239.60100475 288.83296834 239.60100475 288.83296834 238.42481232 288.84251738 C235.85906453 288.85842421 233.29426983 288.84585268 230.72851562 288.83325195 C228.8851669 288.83867411 227.04182252 288.8457973 225.19848633 288.85449219 C220.19849001 288.87271728 215.19882407 288.86566133 210.19882202 288.85297585 C204.96457025 288.842844 199.73034664 288.85224204 194.49609375 288.85852051 C185.70632858 288.86579636 176.91669788 288.85621079 168.12695312 288.8371582 C157.96692377 288.81538962 147.80721549 288.82244103 137.64719391 288.84446383 C128.92175805 288.86261955 120.1964188 288.86517529 111.47097015 288.85470915 C106.26062253 288.84847519 101.0504258 288.84763598 95.84008789 288.8608551 C90.94144674 288.87241543 86.04321929 288.86438441 81.1446228 288.84127808 C79.34753099 288.83599198 77.55040433 288.83750307 75.75332642 288.84632874 C73.29862366 288.85727201 70.84524364 288.84353646 68.390625 288.8236084 C67.32573223 288.83699273 67.32573223 288.83699273 66.23932648 288.85064745 C58.60241047 288.73051828 54.34323943 284.33923954 49.20947266 279.17993164 C48.7111644 278.68191544 48.21285614 278.18389923 47.69944763 277.67079163 C46.0715318 276.04149467 44.45079487 274.40525437 42.83007812 272.76879883 C41.69565957 271.63064581 40.56079544 270.49293676 39.42550659 269.35565186 C36.45208649 266.37462944 33.48472425 263.38764816 30.51861572 260.39935303 C27.48547218 257.3456775 24.44659331 254.29772118 21.40820312 251.24926758 C15.45728689 245.27696151 9.5127631 239.29834318 3.57226562 233.31567383 C-0.23605829 234.88877927 -2.62202988 237.28059957 -5.5 240.19262695 C-5.99159103 240.68713852 -6.48318207 241.18165009 -6.9896698 241.69114685 C-8.05314432 242.76221429 -9.11430256 243.83558552 -10.17338562 244.91099548 C-11.85032157 246.61351022 -13.53347189 248.30965316 -15.21838379 250.00427246 C-18.79379425 253.60251664 -22.36131606 257.20851973 -25.92773438 260.81567383 C-30.06109124 264.99624208 -34.19762394 269.17355954 -38.34269714 273.34251404 C-39.99973907 275.01250855 -41.65063524 276.68841948 -43.3013916 278.36462402 C-44.31911975 279.38961846 -45.33713044 280.41433246 -46.35546875 281.4387207 C-47.24053101 282.33425659 -48.12559326 283.22979248 -49.03747559 284.15246582 C-53.51948391 288.20872799 -57.08053198 288.60873819 -63.00558472 288.58309937 C-64.15592294 288.58989603 -64.15592294 288.58989603 -65.32950032 288.59683001 C-67.90120586 288.60949806 -70.47270028 288.6078521 -73.04443359 288.60620117 C-74.88748447 288.61218491 -76.73053283 288.6189901 -78.57357788 288.6265564 C-83.581862 288.64423904 -88.59007779 288.64891272 -93.5983901 288.65018797 C-97.77835473 288.65208635 -101.95830342 288.65944316 -106.13826191 288.66653216 C-115.99957214 288.68282222 -125.86084584 288.68770054 -135.72216797 288.6862793 C-145.89690351 288.68507759 -156.07142701 288.7061838 -166.24610889 288.73776662 C-174.97997915 288.76391166 -183.71378008 288.77464734 -192.44768918 288.77336848 C-197.66479576 288.77285834 -202.88171395 288.77857041 -208.09878159 288.79972458 C-213.00556979 288.81907715 -217.91198929 288.81925183 -222.81879044 288.80469131 C-224.61911812 288.80259843 -226.4194687 288.80733259 -228.21975708 288.81941223 C-230.67891107 288.83484333 -233.13679032 288.8255716 -235.59591675 288.81015015 C-236.3072095 288.82043727 -237.01850225 288.8307244 -237.75134933 288.84132326 C-242.75849647 288.77200264 -245.55038528 287.41490805 -249.42773438 284.31567383 C-253.05607101 280.49637211 -253.73773896 277.43288377 -253.92773438 272.31567383 C-253.73773896 267.19846389 -253.05607101 264.13497555 -249.42773438 260.31567383 C-243.97700069 255.57568609 -239.13142259 255.73649584 -232.09814453 255.76977539 C-230.96585419 255.75943771 -229.83356384 255.74910004 -228.66696167 255.7384491 C-224.93342845 255.70900877 -221.20043708 255.70752159 -217.46679688 255.70629883 C-214.87461309 255.69131811 -212.28243885 255.6745912 -209.6902771 255.65618896 C-203.57057576 255.61695509 -197.45104475 255.59530136 -191.3312391 255.58221507 C-184.36136709 255.56632625 -177.39167569 255.52790282 -170.42190862 255.48762178 C-156.09058275 255.40529841 -141.75924892 255.35115915 -127.42773438 255.31567383 C-127.9004628 254.64863434 -128.37319122 253.98159485 -128.86024475 253.29434204 C-129.48458908 252.40886688 -130.10893341 251.52339172 -130.75219727 250.61108398 C-131.6778524 249.30114975 -131.6778524 249.30114975 -132.62220764 247.9647522 C-142.49899756 233.4734738 -148.80428646 217.13619071 -153.42773438 200.31567383 C-153.66637207 199.44990723 -153.90500977 198.58414063 -154.15087891 197.69213867 C-157.3896932 185.24091141 -157.80464841 172.79405598 -157.86523438 160.00317383 C-157.87167969 159.25152954 -157.878125 158.49988525 -157.88476562 157.72546387 C-157.96183783 143.03919449 -155.86293808 128.99915478 -151.74023438 114.87817383 C-151.48532227 114.00257813 -151.23041016 113.12698242 -150.96777344 112.22485352 C-138.97609061 72.58209799 -110.73263084 38.51758226 -74.36938477 18.78442383 C-51.07363499 6.63837099 -26.28343305 -0.07473175 0 0 Z " fill="#FEC007" transform="translate(253.427734375,159.684326171875)"/>
<path d="M0 0 C3.64828101 2.12220237 5.39111612 4.24224436 7.90009499 7.62376404 C8.81630941 8.82573264 9.73530547 10.02558456 10.65666008 11.22361755 C11.1419973 11.85767517 11.62733453 12.49173279 12.12737894 13.14500427 C30.07637532 36.23463158 51.21895204 62.27154929 81.72511435 66.48988152 C90.24986383 67.46869471 98.73306133 67.78390199 107.30961037 67.77635193 C108.74461498 67.77520952 108.74461498 67.77520952 110.20860958 67.77404404 C122.00735864 67.71485367 133.75901577 67.14298798 145.53077722 66.37966633 C156.67944661 65.66862661 167.83516978 65.36670632 179.00101662 65.06150818 C190.40333338 64.74181419 201.79588891 64.39049845 213.1864109 63.77220154 C214.91206637 63.68318069 216.63773343 63.59438409 218.36341286 63.50582886 C221.54818 63.34185425 224.72972821 63.15099872 227.91196632 62.94421387 C229.32850623 62.86961922 230.74509934 62.7960255 232.1617527 62.72361755 C233.37617735 62.64937561 234.590602 62.57513367 235.84182739 62.49864197 C241.03928145 63.03134507 244.02071654 65.63837159 247.53617287 69.33885193 C249.93420862 74.50385201 249.91498822 79.23908073 249.16117287 84.83885193 C246.85275421 89.81083056 243.89445826 92.1811575 239.16117287 94.83885193 C236.41569548 95.21668952 234.07878276 95.38117411 231.34281349 95.3467865 C230.57421249 95.35302646 229.8056115 95.35926642 229.01371956 95.36569548 C226.44797177 95.38160231 223.88317707 95.36903078 221.31742287 95.35643005 C219.47407415 95.36185221 217.63072976 95.3689754 215.78739357 95.37767029 C210.78739725 95.39589538 205.78773131 95.38883943 200.78772926 95.37615395 C195.55347749 95.3660221 190.31925388 95.37542014 185.08500099 95.38169861 C176.29523582 95.38897446 167.50560512 95.3793889 158.71586037 95.3603363 C148.55583101 95.33856772 138.39612273 95.34561913 128.23610115 95.36764193 C119.51066529 95.38579765 110.78532605 95.38835339 102.0598774 95.37788725 C96.84952977 95.37165329 91.63933304 95.37081408 86.42899513 95.3840332 C81.53035398 95.39559353 76.63212653 95.38756251 71.73353004 95.36445618 C69.93643823 95.35917008 68.13931157 95.36068117 66.34223366 95.36950684 C63.8875309 95.38045011 61.43415088 95.36671456 58.97953224 95.3467865 C58.26960373 95.35570939 57.55967522 95.36463227 56.82823372 95.37382555 C49.19131772 95.25369638 44.93214667 90.86241764 39.7983799 85.70310974 C39.30007164 85.20509354 38.80176338 84.70707733 38.28835487 84.19396973 C36.66043904 82.56467277 35.03970211 80.92843247 33.41898537 79.29197693 C32.28456682 78.15382391 31.14970269 77.01611486 30.01441383 75.87882996 C27.04099373 72.89780754 24.07363149 69.91082626 21.10752296 66.92253113 C18.07437943 63.8688556 15.03550055 60.82089928 11.99711037 57.77244568 C6.04619413 51.80013961 0.10167034 45.82152128 -5.83882713 39.83885193 C-9.64715105 41.41195737 -12.03312264 43.80377767 -14.91109276 46.71580505 C-15.64847931 47.4575724 -15.64847931 47.4575724 -16.40076256 48.21432495 C-17.46423708 49.28539239 -18.52539532 50.35876362 -19.58447838 51.43417358 C-21.26141433 53.13668832 -22.94456465 54.83283126 -24.62947655 56.52745056 C-28.20488701 60.12569474 -31.77240882 63.73169783 -35.33882713 67.33885193 C-39.472184 71.51942018 -43.6087167 75.69673764 -47.7537899 79.86569214 C-49.41083183 81.53568665 -51.061728 83.21159758 -52.71248436 84.88780212 C-53.7302125 85.91279656 -54.7482232 86.93751057 -55.76656151 87.9618988 C-56.65162376 88.85743469 -57.53668602 89.75297058 -58.44856834 90.67564392 C-62.93057667 94.73190609 -66.49162473 95.13191629 -72.41667747 95.10627747 C-73.5670157 95.11307414 -73.5670157 95.11307414 -74.74059308 95.12000811 C-77.31229862 95.13267616 -79.88379304 95.1310302 -82.45552635 95.12937927 C-84.29857722 95.13536301 -86.14162558 95.1421682 -87.98467064 95.1497345 C-92.99295475 95.16741714 -98.00117055 95.17209082 -103.00948286 95.17336607 C-107.18944749 95.17526445 -111.36939618 95.18262126 -115.54935467 95.18971026 C-125.4106649 95.20600032 -135.2719386 95.21087864 -145.13326073 95.2094574 C-155.30799627 95.20825569 -165.48251977 95.2293619 -175.65720165 95.26094472 C-184.3910719 95.28708977 -193.12487284 95.29782544 -201.85878193 95.29654658 C-207.07588852 95.29603644 -212.29280671 95.30174851 -217.50987434 95.32290268 C-222.41666255 95.34225525 -227.32308205 95.34242993 -232.22988319 95.32786942 C-234.03021088 95.32577653 -235.83056146 95.33051069 -237.63084984 95.34259033 C-240.09000383 95.35802143 -242.54788308 95.3487497 -245.00700951 95.33332825 C-246.07394863 95.34875894 -246.07394863 95.34875894 -247.16244209 95.36450136 C-252.16958923 95.29518074 -254.96147804 93.93808615 -258.83882713 90.83885193 C-262.46716377 87.01955021 -263.14883171 83.95606187 -263.33882713 78.83885193 C-263.14883171 73.72164199 -262.46716377 70.65815365 -258.83882713 66.83885193 C-254.30210861 63.24235061 -251.60207471 62.37192715 -245.84613609 62.73034668 C-244.82494772 62.78365407 -244.82494772 62.78365407 -243.78312927 62.83803838 C-242.29704731 62.91790158 -240.81146277 63.00747803 -239.32647514 63.10560799 C-236.05501399 63.32124533 -232.78152109 63.48890559 -229.50748646 63.66022289 C-227.74065994 63.75311335 -225.97396067 63.84845211 -224.20738876 63.94606507 C-212.71479844 64.57327863 -201.21107742 64.87413862 -189.70655143 65.19444478 C-178.55798084 65.5068952 -167.43579317 65.91290381 -156.30635643 66.6481781 C-144.56715812 67.4074627 -132.84984733 67.86302865 -121.08492088 67.87400818 C-120.12846279 67.87506199 -119.17200469 67.87611581 -118.18656301 67.87720156 C-88.89209431 67.72260725 -69.90874689 60.60289809 -49.02194786 39.82650757 C-39.92400215 30.47873791 -31.33191982 20.59583134 -23.37187195 10.26117516 C-22.65397644 9.33237743 -22.65397644 9.33237743 -21.92157799 8.38481611 C-21.04170085 7.23630224 -20.17213473 6.07977688 -19.31562322 4.91373402 C-14.42625775 -1.5189449 -7.4217904 -3.03568946 0 0 Z " fill="#607D8A" transform="translate(262.8388271331787,353.16114807128906)"/>
<path d="M0 0 C1.10794922 -0.03867188 1.10794922 -0.03867188 2.23828125 -0.078125 C8.5443541 0.76670773 12.63252894 4.75796081 16.890625 9.08984375 C17.7364212 9.9348922 17.7364212 9.9348922 18.5993042 10.79701233 C19.78270638 11.98274339 20.96244554 13.1721405 22.13867188 14.36499023 C23.93720758 16.18720373 25.74878389 17.99564304 27.5625 19.80273438 C28.71433717 20.96014637 29.86540589 22.11832374 31.015625 23.27734375 C31.82498505 24.08533669 31.82498505 24.08533669 32.6506958 24.90965271 C37.02884687 29.37109865 38.97398643 32.30459069 39.0625 38.5625 C38.9381109 44.05025463 38.11449933 46.94428289 34.6875 51.25 C29.69720128 55.22187041 25.72979275 55.70814464 19.43359375 55.78125 C13.3316083 54.60078055 8.96119049 49.83208715 4.703125 45.56640625 C4.16145691 45.02902328 3.61978882 44.49164032 3.06170654 43.93797302 C1.92646363 42.80843727 0.79378349 41.67632043 -0.33642578 40.54174805 C-2.06290208 38.81209718 -3.80232813 37.09624133 -5.54296875 35.38085938 C-6.64924743 34.27685267 -7.75474376 33.17206133 -8.859375 32.06640625 C-9.37707458 31.55791641 -9.89477417 31.04942657 -10.42816162 30.52552795 C-14.54508501 26.35529195 -16.59355551 22.69262014 -16.625 16.8125 C-16.4874804 11.93459906 -15.40954377 8.36423265 -11.8828125 4.80859375 C-8.0432214 1.45611496 -5.03361502 0.10432363 0 0 Z " fill="#FFD54E" transform="translate(86.3125,133.75)"/>
<path d="M0 0 C4.1796989 2.8497947 7.11864324 5.98092971 8.75 10.875 C8.953125 12.92578125 8.953125 12.92578125 9 15.1875 C9.02578125 15.92613281 9.0515625 16.66476563 9.078125 17.42578125 C8.23329227 23.7318541 4.24203919 27.82002894 -0.08984375 32.078125 C-0.9348922 32.9239212 -0.9348922 32.9239212 -1.79701233 33.7868042 C-2.98274339 34.97020638 -4.1721405 36.14994554 -5.36499023 37.32617188 C-7.18720373 39.12470758 -8.99564304 40.93628389 -10.80273438 42.75 C-11.96014637 43.90183717 -13.11832374 45.05290589 -14.27734375 46.203125 C-15.08533669 47.01248505 -15.08533669 47.01248505 -15.90965271 47.8381958 C-20.37109865 52.21634687 -23.30459069 54.16148643 -29.5625 54.25 C-35.05025463 54.1256109 -37.94428289 53.30199933 -42.25 49.875 C-46.01008131 45.05438294 -46.69339624 41.45047864 -46.68359375 35.40234375 C-45.5990557 29.0807571 -41.82778891 25.00484257 -37.4453125 20.671875 C-36.88431854 20.10801086 -36.32332458 19.54414673 -35.74533081 18.9631958 C-34.56388446 17.77971796 -33.37868108 16.59998001 -32.18994141 15.42382812 C-30.37693306 13.6269159 -28.58052619 11.81451663 -26.78515625 10 C-25.63116923 8.84799498 -24.47625216 7.6969207 -23.3203125 6.546875 C-22.78681183 6.00730164 -22.25331116 5.46772827 -21.7036438 4.9118042 C-15.32230465 -1.35132237 -8.45047278 -2.92516365 0 0 Z " fill="#FFD54F" transform="translate(433.25,135.125)"/>
<path d="M0 0 C0.95390625 -0.0038269 1.9078125 -0.00765381 2.890625 -0.01159668 C4.90105245 -0.01431036 6.91151553 -0.00698737 8.921875 0.00976562 C11.99038787 0.03118291 15.05655952 0.00994534 18.125 -0.015625 C20.08333848 -0.01298163 22.0416755 -0.00785645 24 0 C25.36898437 -0.01214539 25.36898437 -0.01214539 26.765625 -0.02453613 C32.34723968 0.05719316 35.57473138 0.80813314 40 4.53125 C43.62833663 8.35055172 44.31000458 11.41404006 44.5 16.53125 C44.31000458 21.64845994 43.62833663 24.71194828 40 28.53125 C34.73573631 32.96023965 30.57725694 33.12085225 24 33.0625 C22.56914062 33.06824036 22.56914062 33.06824036 21.109375 33.07409668 C19.09894755 33.07681036 17.08848447 33.06948737 15.078125 33.05273438 C12.00961213 33.03131709 8.94344048 33.05255466 5.875 33.078125 C3.91666152 33.07548163 1.9583245 33.07035645 0 33.0625 C-1.36898438 33.07464539 -1.36898438 33.07464539 -2.765625 33.08703613 C-8.34723968 33.00530684 -11.57473138 32.25436686 -16 28.53125 C-19.62833663 24.71194828 -20.31000458 21.64845994 -20.5 16.53125 C-20.31000458 11.41404006 -19.62833663 8.35055172 -16 4.53125 C-10.73573631 0.10226035 -6.57725694 -0.05835225 0 0 Z " fill="#FFD54F" transform="translate(468,303.46875)"/>
<path d="M0 0 C0.95390625 -0.0038269 1.9078125 -0.00765381 2.890625 -0.01159668 C4.90105245 -0.01431036 6.91151553 -0.00698737 8.921875 0.00976562 C11.99038787 0.03118291 15.05655952 0.00994534 18.125 -0.015625 C20.08333848 -0.01298163 22.0416755 -0.00785645 24 0 C25.36898437 -0.01214539 25.36898437 -0.01214539 26.765625 -0.02453613 C32.34723968 0.05719316 35.57473138 0.80813314 40 4.53125 C43.62833663 8.35055172 44.31000458 11.41404006 44.5 16.53125 C44.31000458 21.64845994 43.62833663 24.71194828 40 28.53125 C34.73573631 32.96023965 30.57725694 33.12085225 24 33.0625 C22.56914063 33.06824036 22.56914063 33.06824036 21.109375 33.07409668 C19.09894755 33.07681036 17.08848447 33.06948737 15.078125 33.05273438 C12.00961213 33.03131709 8.94344048 33.05255466 5.875 33.078125 C3.91666152 33.07548163 1.9583245 33.07035645 0 33.0625 C-1.36898438 33.07464539 -1.36898438 33.07464539 -2.765625 33.08703613 C-8.34723968 33.00530684 -11.57473138 32.25436686 -16 28.53125 C-19.62833663 24.71194828 -20.31000458 21.64845994 -20.5 16.53125 C-20.31000458 11.41404006 -19.62833663 8.35055172 -16 4.53125 C-10.73573631 0.10226035 -6.57725694 -0.05835225 0 0 Z " fill="#FFD54F" transform="translate(20,303.46875)"/>
<path d="M0 0 C4.96592669 2.30560882 7.41978039 5.22082111 10 10 C10.57098662 13.33824707 10.56124181 16.61943061 10.53125 20 C10.5350769 20.95390625 10.53890381 21.9078125 10.54284668 22.890625 C10.54556036 24.90105245 10.53823737 26.91151553 10.52148438 28.921875 C10.50006709 31.99038787 10.52130466 35.05655952 10.546875 38.125 C10.54423163 40.08333848 10.53910645 42.0416755 10.53125 44 C10.53934692 44.91265625 10.54744385 45.8253125 10.55578613 46.765625 C10.47405684 52.34723968 9.72311686 55.57473138 6 60 C2.18069828 63.62833663 -0.88279006 64.31000458 -6 64.5 C-11.11720994 64.31000458 -14.18069828 63.62833663 -18 60 C-22.42898965 54.73573631 -22.58960225 50.57725694 -22.53125 44 C-22.5350769 43.04609375 -22.53890381 42.0921875 -22.54284668 41.109375 C-22.54556036 39.09894755 -22.53823737 37.08848447 -22.52148438 35.078125 C-22.50006709 32.00961213 -22.52130466 28.94344048 -22.546875 25.875 C-22.54423163 23.91666152 -22.53910645 21.9583245 -22.53125 20 C-22.53934692 19.08734375 -22.54744385 18.1746875 -22.55578613 17.234375 C-22.47405684 11.65276032 -21.72311686 8.42526862 -18 4 C-12.72867143 -1.00776214 -6.89190982 -0.92775709 0 0 Z " fill="#FFD54E" transform="translate(262,64)"/>
</svg>
