<?xml version="1.0" encoding="UTF-8"?>
<svg version="1.1" xmlns="http://www.w3.org/2000/svg" width="512" height="512">
<path d="M0 0 C2.30582442 0.00315136 4.61034924 -0.02036856 6.91601562 -0.0456543 C21.01295193 -0.10656866 34.46260952 2.04800167 48.00976562 6.00317383 C49.32315918 6.38554199 49.32315918 6.38554199 50.66308594 6.77563477 C90.30584147 18.76731759 124.3703572 47.01077736 144.10351562 83.37402344 C156.63506796 107.40914921 163.02385164 132.68852647 162.94726562 159.75317383 C162.94605713 160.54558472 162.94484863 161.33799561 162.94360352 162.15441895 C162.88967885 175.22325839 162.06166976 187.65627585 158.57226562 200.31567383 C158.1775708 201.75160889 158.1775708 201.75160889 157.77490234 203.21655273 C152.95022083 220.13160761 146.07894222 236.20179721 135.89672852 250.61108398 C135.27238419 251.49655914 134.64803986 252.3820343 134.004776 253.29434204 C133.29568336 254.29490128 133.29568336 254.29490128 132.57226562 255.31567383 C133.46071891 255.31787367 133.46071891 255.31787367 134.36712074 255.32011795 C148.78986876 255.35719561 163.21240397 255.41622293 177.63495827 255.49957657 C184.60967003 255.53935878 191.5842691 255.57175533 198.55908203 255.58666992 C205.28953122 255.60108284 212.01958077 255.63620314 218.74988937 255.68398285 C221.31828146 255.69882607 223.8867234 255.70671652 226.45515823 255.70755768 C230.05137672 255.7099201 233.64662436 255.73694387 237.24267578 255.76977539 C238.30578979 255.76474503 239.36890381 255.75971466 240.4642334 255.75453186 C246.49506842 255.83977694 249.97066918 256.31410047 254.57226562 260.31567383 C258.20060226 264.13497555 258.88227021 267.19846389 259.07226562 272.31567383 C258.88227021 277.43288377 258.20060226 280.49637211 254.57226562 284.31567383 C250.04725602 287.89975642 247.35760203 288.78379611 241.61753845 288.42417908 C240.94082975 288.38864081 240.26412106 288.35310255 239.56690603 288.31648737 C238.089833 288.23662812 236.61326054 288.14705233 235.13728905 288.04891777 C231.88561655 287.83326532 228.63189889 287.66561561 225.37763608 287.49430287 C223.62146444 287.40141354 221.86542089 287.30607481 220.10950553 287.20846069 C208.68515266 286.58117999 197.24959564 286.2803738 185.8132323 285.96008098 C174.73107076 285.64765277 163.67545564 285.24171107 152.61254883 284.50634766 C140.94285888 283.74693184 129.29518742 283.29149601 117.59960938 283.28051758 C116.64877582 283.27946376 115.69794227 283.27840995 114.71829557 283.2773242 C85.49757499 283.43244202 66.58131319 290.62754683 45.74061584 311.32801819 C35.06032208 322.2843445 25.05193471 333.95414737 15.93020004 346.24079174 C13.75330726 349.10962814 12.01299014 351.11075716 8.57226562 352.31567383 C5.76757812 352.65161133 5.76757812 352.65161133 2.69726562 352.69067383 C1.68921875 352.7190332 0.68117187 352.74739258 -0.35742188 352.77661133 C-6.76958986 351.81397033 -10.38361096 347.50405799 -14.08378601 342.50804138 C-14.9814241 341.32604524 -15.88201927 340.14629058 -16.78512383 338.96846581 C-17.49829313 338.03717358 -17.49829313 338.03717358 -18.22586989 337.08706737 C-35.95816537 314.29504864 -56.71680097 288.87497754 -86.83462358 284.74623799 C-95.30611685 283.78163384 -103.73763144 283.47018131 -112.25976562 283.47583008 C-113.68665089 283.47677587 -113.68665089 283.47677587 -115.14236212 283.47774076 C-126.87882311 283.53501479 -138.56965189 284.09726967 -150.27993 284.84688509 C-161.37019823 285.54518631 -172.46729166 285.8421395 -183.57421875 286.1418457 C-194.9164185 286.45558975 -206.24905402 286.80027083 -217.57978821 287.40797424 C-219.29670976 287.49537632 -221.01364368 287.58253561 -222.73059082 287.66943359 C-225.89924883 287.83027759 -229.06471263 288.01791399 -232.23088074 288.22142029 C-233.64038169 288.2945626 -235.04993546 288.36669697 -236.45954895 288.43763733 C-237.66789807 288.51058045 -238.8762472 288.58352358 -240.12121296 288.6586771 C-245.30826663 288.12059609 -248.2936858 285.50940917 -251.80273438 281.81567383 C-254.20077013 276.65067374 -254.18154973 271.91544503 -253.42773438 266.31567383 C-251.26387405 261.65505159 -248.17853688 258.36157012 -243.42773438 256.31567383 C-239.65161825 255.72473469 -235.91428461 255.75171846 -232.09814453 255.76977539 C-230.96585419 255.75943771 -229.83356384 255.74910004 -228.66696167 255.7384491 C-224.93342845 255.70900877 -221.20043708 255.70752159 -217.46679688 255.70629883 C-214.87461309 255.69131811 -212.28243885 255.6745912 -209.6902771 255.65618896 C-203.57057576 255.61695509 -197.45104475 255.59530136 -191.3312391 255.58221507 C-184.36136709 255.56632625 -177.39167569 255.52790282 -170.42190862 255.48762178 C-156.09058275 255.40529841 -141.75924892 255.35115915 -127.42773438 255.31567383 C-127.9004628 254.64863434 -128.37319122 253.98159485 -128.86024475 253.29434204 C-129.48458908 252.40886688 -130.10893341 251.52339172 -130.75219727 250.61108398 C-131.6778524 249.30114975 -131.6778524 249.30114975 -132.62220764 247.9647522 C-142.49899756 233.4734738 -148.80428646 217.13619071 -153.42773438 200.31567383 C-153.66637207 199.44990723 -153.90500977 198.58414063 -154.15087891 197.69213867 C-157.3896932 185.24091141 -157.80464841 172.79405598 -157.86523438 160.00317383 C-157.87167969 159.25152954 -157.878125 158.49988525 -157.88476562 157.72546387 C-157.96183783 143.03919449 -155.86293808 128.99915478 -151.74023438 114.87817383 C-151.48532227 114.00257813 -151.23041016 113.12698242 -150.96777344 112.22485352 C-138.97609061 72.58209799 -110.73263084 38.51758226 -74.36938477 18.78442383 C-51.07363499 6.63837099 -26.28343305 -0.07473175 0 0 Z " fill="#FEC007" transform="translate(253.427734375,127.684326171875)"/>
<path d="M0 0 C1.14065084 -0.0083016 1.14065084 -0.0083016 2.30434513 -0.0167709 C4.84247469 -0.03034169 7.37961476 -0.01542826 9.91772461 -0.00050354 C11.74136776 -0.00428803 13.56500805 -0.00978914 15.38864136 -0.01687622 C20.33493455 -0.03083118 25.28087992 -0.01966071 30.22715378 -0.00316501 C35.40534484 0.01069194 40.58351584 0.00422468 45.76171875 0.0007019 C54.45733237 -0.0019997 63.15280791 0.01147119 71.84838867 0.03465271 C81.89931449 0.0612621 91.95000947 0.06300934 102.00095844 0.05126435 C111.67269657 0.04048223 121.34435126 0.04667706 131.01608276 0.06081963 C135.1307879 0.06657565 139.24543191 0.06649975 143.36013794 0.06175423 C148.20619683 0.05697919 153.0520032 0.06710804 157.89801407 0.08870888 C159.67575351 0.09426972 161.45351726 0.09474849 163.23125839 0.08975601 C165.65949733 0.08379231 168.08696702 0.09632863 170.51513672 0.11352539 C171.56835664 0.10451032 171.56835664 0.10451032 172.64285374 0.09531313 C180.27921261 0.19353711 184.58738715 3.45300858 189.80395508 8.70701599 C190.32177048 9.22439331 190.83958588 9.74177063 191.37309265 10.27482605 C193.06836378 11.97217296 194.75278298 13.67986626 196.43725586 15.38792419 C197.61629589 16.57256448 198.79600377 17.75654042 199.97634888 18.93988037 C203.07037406 22.04532047 206.15528086 25.1596657 209.23834229 28.27598572 C212.39030959 31.45872622 215.550863 34.63291531 218.71069336 37.80784607 C224.90139535 44.03065303 231.08248554 50.26289897 237.25756836 56.50120544 C241.10584313 54.92025852 243.50588453 52.47580718 246.40576172 49.53245544 C246.90550003 49.02819031 247.40523834 48.52392517 247.92012024 48.00437927 C249.00156974 46.91199514 250.08073299 45.81734391 251.15785027 44.72068787 C252.86410747 42.98421443 254.57700249 41.25454901 256.29188538 39.52659607 C261.16526107 34.61351033 266.02583068 29.68782434 270.88330078 24.75901794 C273.85769237 21.74187869 276.83938538 18.73210999 279.82547188 15.72654724 C280.96026847 14.58119454 282.0921411 13.43293703 283.22099113 12.28172302 C284.80054055 10.67092803 286.3891441 9.06959314 287.97998047 7.46995544 C288.88058701 6.55665466 289.78119354 5.64335388 290.70909119 4.70237732 C295.43581403 0.61981009 299.8080643 0.20710806 305.87974548 0.23377991 C306.63932495 0.22924879 307.39890442 0.22471768 308.18150145 0.22004926 C310.72246284 0.20740586 313.26320988 0.20902557 315.80419922 0.2106781 C317.62769343 0.20469289 319.45118511 0.19788736 321.27467346 0.19032288 C326.22504914 0.17265685 331.17535568 0.16796729 336.12575984 0.1666913 C340.25855348 0.16479169 344.39133104 0.15743359 348.52411848 0.15034711 C358.27373703 0.13406394 368.02331864 0.12917817 377.77294922 0.13059998 C387.83125897 0.13180202 397.88935435 0.11068746 407.94760984 0.07911265 C416.58383664 0.05296767 425.21999333 0.0422319 433.85625941 0.04351079 C439.01410716 0.04402087 444.17176433 0.03831232 449.32957268 0.01715469 C454.17974199 -0.00219818 459.02953828 -0.00237238 463.87972069 0.01218796 C465.65908604 0.01428069 467.43847457 0.00954756 469.21780014 -0.00253296 C471.6484417 -0.017966 474.07779388 -0.00869121 476.50840759 0.00672913 C477.21123633 -0.003558 477.91406506 -0.01384513 478.63819164 -0.02444398 C483.62019135 0.04532487 486.39864983 1.42268434 490.25756836 4.50120544 C493.88590499 8.32050716 494.56757294 11.38399551 494.75756836 16.50120544 C494.56757294 21.61841538 493.88590499 24.68190372 490.25756836 28.50120544 C485.73255875 32.08528804 483.04290477 32.96932773 477.30284119 32.60971069 C476.62613249 32.57417243 475.94942379 32.53863417 475.25220877 32.50201899 C473.77513574 32.42215974 472.29856327 32.33258394 470.82259178 32.23444939 C467.57091928 32.01879694 464.31720163 31.85114723 461.06293881 31.67983449 C459.30676717 31.58694516 457.55072362 31.49160643 455.79480827 31.3939923 C444.3704554 30.76671161 432.93489837 30.46590541 421.49853504 30.1456126 C410.4163735 29.83318439 399.36075837 29.42724269 388.29785156 28.69187927 C376.62816161 27.93246345 364.98049015 27.47702763 353.28491211 27.46604919 C352.33407856 27.46499538 351.383245 27.46394156 350.40359831 27.46285582 C321.18287772 27.61797364 302.26661592 34.81307844 281.42591858 55.5135498 C270.74562482 66.46987611 260.73723745 78.13967899 251.61550277 90.42632335 C249.43861 93.29515975 247.69829288 95.29628877 244.25756836 96.50120544 C241.45288086 96.83714294 241.45288086 96.83714294 238.38256836 96.87620544 C237.37452148 96.90456482 236.36647461 96.93292419 235.32788086 96.96214294 C228.91571287 95.99950195 225.30169178 91.6895896 221.60151672 86.693573 C220.70387864 85.51157685 219.80328347 84.33182219 218.90017891 83.15399742 C218.42473271 82.53313594 217.9492865 81.91227445 217.45943284 81.27259898 C199.72713736 58.48058026 178.96850176 33.06050915 148.85067916 28.93176961 C140.37918589 27.96716546 131.94767129 27.65571292 123.42553711 27.66136169 C121.99865185 27.66230748 121.99865185 27.66230748 120.54294062 27.66327238 C108.80647962 27.7205464 97.11565084 28.28280129 85.40537274 29.0324167 C74.3151045 29.73071792 63.21801108 30.02767111 52.11108398 30.32737732 C40.76888424 30.64112137 29.43624872 30.98580245 18.10551453 31.59350586 C16.38859298 31.68090793 14.67165905 31.76806723 12.95471191 31.85496521 C9.78605391 32.01580921 6.6205901 32.20344561 3.454422 32.4069519 C2.04492104 32.48009422 0.63536728 32.55222859 -0.77424622 32.62316895 C-1.98259534 32.69611207 -3.19094446 32.76905519 -4.43591022 32.84420872 C-9.6229639 32.30612771 -12.60838307 29.69494078 -16.11743164 26.00120544 C-18.51546739 20.83620536 -18.49624699 16.10097665 -17.74243164 10.50120544 C-14.15333341 2.77084003 -8.26159041 -0.11301433 0 0 Z " fill="#607D8A" transform="translate(17.742431640625,383.49879455566406)"/>
<path d="M0 0 C4.1796989 2.8497947 7.11864324 5.98092971 8.75 10.875 C8.953125 12.92578125 8.953125 12.92578125 9 15.1875 C9.02578125 15.92613281 9.0515625 16.66476563 9.078125 17.42578125 C8.23329227 23.7318541 4.24203919 27.82002894 -0.08984375 32.078125 C-0.9348922 32.9239212 -0.9348922 32.9239212 -1.79701233 33.7868042 C-2.98274339 34.97020638 -4.1721405 36.14994554 -5.36499023 37.32617188 C-7.18720373 39.12470758 -8.99564304 40.93628389 -10.80273438 42.75 C-11.96014637 43.90183717 -13.11832374 45.05290589 -14.27734375 46.203125 C-15.08533669 47.01248505 -15.08533669 47.01248505 -15.90965271 47.8381958 C-20.37109865 52.21634687 -23.30459069 54.16148643 -29.5625 54.25 C-35.05025463 54.1256109 -37.94428289 53.30199933 -42.25 49.875 C-46.22187041 44.88470128 -46.70814464 40.91729275 -46.78125 34.62109375 C-45.60078055 28.5191083 -40.83208715 24.14869049 -36.56640625 19.890625 C-36.02902328 19.34895691 -35.49164032 18.80728882 -34.93797302 18.24920654 C-33.80843727 17.11396363 -32.67632043 15.98128349 -31.54174805 14.85107422 C-29.81209718 13.12459792 -28.09624133 11.38517187 -26.38085938 9.64453125 C-25.27685267 8.53825257 -24.17206133 7.43275624 -23.06640625 6.328125 C-22.55791641 5.81042542 -22.04942657 5.29272583 -21.52552795 4.75933838 C-15.24536224 -1.44054122 -8.30638192 -2.87528605 0 0 Z " fill="#FFD54F" transform="translate(433.25,103.125)"/>
<path d="M0 0 C1.10794922 -0.03867188 1.10794922 -0.03867188 2.23828125 -0.078125 C8.5443541 0.76670773 12.63252894 4.75796081 16.890625 9.08984375 C17.7364212 9.9348922 17.7364212 9.9348922 18.5993042 10.79701233 C19.78270638 11.98274339 20.96244554 13.1721405 22.13867188 14.36499023 C23.93720758 16.18720373 25.74878389 17.99564304 27.5625 19.80273438 C28.71433717 20.96014637 29.86540589 22.11832374 31.015625 23.27734375 C31.82498505 24.08533669 31.82498505 24.08533669 32.6506958 24.90965271 C37.02884687 29.37109865 38.97398643 32.30459069 39.0625 38.5625 C38.9381109 44.05025463 38.11449933 46.94428289 34.6875 51.25 C29.69720128 55.22187041 25.72979275 55.70814464 19.43359375 55.78125 C13.3316083 54.60078055 8.96119049 49.83208715 4.703125 45.56640625 C4.16145691 45.02902328 3.61978882 44.49164032 3.06170654 43.93797302 C1.92646363 42.80843727 0.79378349 41.67632043 -0.33642578 40.54174805 C-2.06290208 38.81209718 -3.80232813 37.09624133 -5.54296875 35.38085938 C-6.64924743 34.27685267 -7.75474376 33.17206133 -8.859375 32.06640625 C-9.37707458 31.55791641 -9.89477417 31.04942657 -10.42816162 30.52552795 C-14.54508501 26.35529195 -16.59355551 22.69262014 -16.625 16.8125 C-16.4874804 11.93459906 -15.40954377 8.36423265 -11.8828125 4.80859375 C-8.0432214 1.45611496 -5.03361502 0.10432363 0 0 Z " fill="#FFD54F" transform="translate(86.3125,101.75)"/>
<path d="M0 0 C0.95390625 -0.0038269 1.9078125 -0.00765381 2.890625 -0.01159668 C4.90105245 -0.01431036 6.91151553 -0.00698737 8.921875 0.00976562 C11.99038787 0.03118291 15.05655952 0.00994534 18.125 -0.015625 C20.08333848 -0.01298163 22.0416755 -0.00785645 24 0 C25.36898437 -0.01214539 25.36898437 -0.01214539 26.765625 -0.02453613 C32.34723968 0.05719316 35.57473138 0.80813314 40 4.53125 C43.62833663 8.35055172 44.31000458 11.41404006 44.5 16.53125 C44.31000458 21.64845994 43.62833663 24.71194828 40 28.53125 C34.73573631 32.96023965 30.57725694 33.12085225 24 33.0625 C22.56914062 33.06824036 22.56914062 33.06824036 21.109375 33.07409668 C19.09894755 33.07681036 17.08848447 33.06948737 15.078125 33.05273438 C12.00961213 33.03131709 8.94344048 33.05255466 5.875 33.078125 C3.91666152 33.07548163 1.9583245 33.07035645 0 33.0625 C-1.36898438 33.07464539 -1.36898438 33.07464539 -2.765625 33.08703613 C-8.34723968 33.00530684 -11.57473138 32.25436686 -16 28.53125 C-19.62833663 24.71194828 -20.31000458 21.64845994 -20.5 16.53125 C-20.31000458 11.41404006 -19.62833663 8.35055172 -16 4.53125 C-10.73573631 0.10226035 -6.57725694 -0.05835225 0 0 Z " fill="#FFD54E" transform="translate(468,271.46875)"/>
<path d="M0 0 C0.95390625 -0.0038269 1.9078125 -0.00765381 2.890625 -0.01159668 C4.90105245 -0.01431036 6.91151553 -0.00698737 8.921875 0.00976562 C11.99038787 0.03118291 15.05655952 0.00994534 18.125 -0.015625 C20.08333848 -0.01298163 22.0416755 -0.00785645 24 0 C25.36898437 -0.01214539 25.36898437 -0.01214539 26.765625 -0.02453613 C32.34723968 0.05719316 35.57473138 0.80813314 40 4.53125 C43.62833663 8.35055172 44.31000458 11.41404006 44.5 16.53125 C44.31000458 21.64845994 43.62833663 24.71194828 40 28.53125 C34.73573631 32.96023965 30.57725694 33.12085225 24 33.0625 C22.56914063 33.06824036 22.56914063 33.06824036 21.109375 33.07409668 C19.09894755 33.07681036 17.08848447 33.06948737 15.078125 33.05273438 C12.00961213 33.03131709 8.94344048 33.05255466 5.875 33.078125 C3.91666152 33.07548163 1.9583245 33.07035645 0 33.0625 C-1.36898438 33.07464539 -1.36898438 33.07464539 -2.765625 33.08703613 C-8.34723968 33.00530684 -11.57473138 32.25436686 -16 28.53125 C-19.62833663 24.71194828 -20.31000458 21.64845994 -20.5 16.53125 C-20.31000458 11.41404006 -19.62833663 8.35055172 -16 4.53125 C-10.73573631 0.10226035 -6.57725694 -0.05835225 0 0 Z " fill="#FFD54E" transform="translate(20,271.46875)"/>
<path d="M0 0 C4.96592669 2.30560882 7.41978039 5.22082111 10 10 C10.57098662 13.33824707 10.56124181 16.61943061 10.53125 20 C10.5350769 20.95390625 10.53890381 21.9078125 10.54284668 22.890625 C10.54556036 24.90105245 10.53823737 26.91151553 10.52148438 28.921875 C10.50006709 31.99038787 10.52130466 35.05655952 10.546875 38.125 C10.54423163 40.08333848 10.53910645 42.0416755 10.53125 44 C10.53934692 44.91265625 10.54744385 45.8253125 10.55578613 46.765625 C10.47405684 52.34723968 9.72311686 55.57473138 6 60 C2.18069828 63.62833663 -0.88279006 64.31000458 -6 64.5 C-11.11720994 64.31000458 -14.18069828 63.62833663 -18 60 C-22.42898965 54.73573631 -22.58960225 50.57725694 -22.53125 44 C-22.5350769 43.04609375 -22.53890381 42.0921875 -22.54284668 41.109375 C-22.54556036 39.09894755 -22.53823737 37.08848447 -22.52148438 35.078125 C-22.50006709 32.00961213 -22.52130466 28.94344048 -22.546875 25.875 C-22.54423163 23.91666152 -22.53910645 21.9583245 -22.53125 20 C-22.53934692 19.08734375 -22.54744385 18.1746875 -22.55578613 17.234375 C-22.47405684 11.65276032 -21.72311686 8.42526862 -18 4 C-12.72867143 -1.00776214 -6.89190982 -0.92775709 0 0 Z " fill="#FFD54F" transform="translate(262,32)"/>
</svg>
